<?xml version="1.0" encoding="utf-8"?>
<!-- Generator: Adobe Illustrator 24.3.0, SVG Export Plug-In . SVG Version: 6.00 Build 0)  -->
<svg id="api-icon" xmlns="http://www.w3.org/2000/svg" xmlns:xlink="http://www.w3.org/1999/xlink" width="250" height="250" viewBox="0 0 250 250">
  <defs>
    <linearGradient id="linear-gradient" x1="0.5" x2="0.5" y2="1" gradientUnits="objectBoundingBox">
      <stop offset="0" stop-color="#d8e7f3"/>
      <stop offset="1" stop-color="#d0dae3"/>
    </linearGradient>
  </defs>
  <path id="Path" d="M50.626,151.661H174.736c15.71,0,28.46-13.715,28.46-30.614,0-12.123-6.546-22.593-16.04-27.552a40.389,40.389,0,0,0,2.277-13.421c0-20.9-15.767-37.851-35.2-37.851a32.362,32.362,0,0,0-7.263.808C141.688,25.041,126.057,12,107.593,12S73.5,25.041,68.215,43.031a32.289,32.289,0,0,0-7.263-.808c-19.433,0-35.188,16.948-35.188,37.851A40.39,40.39,0,0,0,28.04,93.494C18.546,98.454,12,108.924,12,121.047c0,16.9,12.739,30.614,28.46,30.614Z" transform="translate(17.402 14.402)" fill="#0c6e8b" fill-rule="evenodd"/>
  <g id="Group">
    <path id="Shape" d="M230.916,94.68a46.242,46.242,0,0,0,1.814-12.856c0-26.282-22.076-47.665-49.21-47.665a51.47,51.47,0,0,0-5.787.324,55.09,55.09,0,0,0-18.818-23.6,58.325,58.325,0,0,0-67.842,0,55.089,55.089,0,0,0-18.818,23.6,51.72,51.72,0,0,0-5.788-.322c-27.126,0-49.2,21.382-49.2,47.665A46.242,46.242,0,0,0,19.084,94.68,38.918,38.918,0,0,0,0,128.135c0,21.772,18.282,39.485,40.753,39.485H48.47V183.5a10.518,10.518,0,0,0,10.668,10.336H61.13a62.61,62.61,0,0,0,5.581,13.04l-1.4,1.354a10.119,10.119,0,0,0-.014,14.636L76.47,233.7a10.95,10.95,0,0,0,15.082-.006l1.424-1.375a66.944,66.944,0,0,0,13.448,5.4v1.93A10.532,10.532,0,0,0,117.107,250h15.785a10.532,10.532,0,0,0,10.682-10.35v-1.932a67.279,67.279,0,0,0,13.44-5.4l1.412,1.369a10.934,10.934,0,0,0,15.1,0l11.183-10.835a10.144,10.144,0,0,0-.012-14.616l-1.413-1.369a63.227,63.227,0,0,0,5.579-13.036h1.983A10.525,10.525,0,0,0,201.53,183.5V167.62h7.717c22.471,0,40.753-17.713,40.753-39.485A38.918,38.918,0,0,0,230.916,94.68ZM191.451,183.5a.6.6,0,0,1-.6.571h-5.886a5.007,5.007,0,0,0-4.916,3.807,53.785,53.785,0,0,1-7.347,17.169,4.768,4.768,0,0,0,.7,6.057l4.171,4.042a.594.594,0,0,1,0,.818L166.4,226.786a.641.641,0,0,1-.843,0l-4.171-4.042a5.164,5.164,0,0,0-6.254-.677,57.121,57.121,0,0,1-17.7,7.1,4.92,4.92,0,0,0-3.938,4.765v5.716a.616.616,0,0,1-.6.584H117.108a.608.608,0,0,1-.6-.584v-5.716a4.92,4.92,0,0,0-3.939-4.765,56.856,56.856,0,0,1-17.692-7.1,5.162,5.162,0,0,0-6.253.668l-4.191,4.047a.634.634,0,0,1-.841,0L72.432,215.962a.566.566,0,0,1-.174-.416.535.535,0,0,1,.174-.4L76.6,211.1a4.769,4.769,0,0,0,.695-6.064,53.141,53.141,0,0,1-7.34-17.153,5.007,5.007,0,0,0-4.919-3.816h-5.9a.587.587,0,0,1-.588-.571V167.62H82.03a41.292,41.292,0,0,0-.833,8.225c0,23.4,19.647,42.433,43.8,42.433S168.8,199.242,168.8,175.844a41,41,0,0,0-.841-8.225h23.487V183.5Zm17.8-25.644H147.621a4.885,4.885,0,1,0,0,9.766h10.007a31.531,31.531,0,0,1,1.1,8.225c0,18.013-15.132,32.667-33.73,32.667s-33.715-14.655-33.715-32.667a31.706,31.706,0,0,1,1.084-8.225h10a4.885,4.885,0,1,0,0-9.766H40.753c-16.913,0-30.672-13.332-30.672-29.719a29.463,29.463,0,0,1,17.29-26.75,4.823,4.823,0,0,0,2.512-6.12,36.8,36.8,0,0,1-2.531-13.441c0-20.9,17.546-37.9,39.115-37.9a39.7,39.7,0,0,1,8.056.8,5.062,5.062,0,0,0,5.864-3.3c6.173-18.937,24.1-31.66,44.605-31.66s38.433,12.723,44.606,31.66a5.06,5.06,0,0,0,5.859,3.3,39.861,39.861,0,0,1,8.061-.805c21.576,0,39.13,17,39.13,37.9a36.8,36.8,0,0,1-2.531,13.441,4.823,4.823,0,0,0,2.512,6.12,29.463,29.463,0,0,1,17.29,26.75c0,16.387-13.76,29.719-30.672,29.719Z" transform="translate(0 0)" fill="url(#linear-gradient)"/>
    <path id="Path-2" data-name="Path" d="M76.9,36c-2.706,0-4.9,1.757-4.9,3.924V78.63c0,2.167,2.194,3.924,4.9,3.924s4.9-1.757,4.9-3.924V39.924C81.8,37.757,79.607,36,76.9,36Z" transform="translate(88.133 39.506)" fill="#fff"/>
    <path id="Shape-2" data-name="Shape" d="M70.523,36h-10.7A3.886,3.886,0,0,0,56,39.865V78.689a3.825,3.825,0,1,0,7.649,0V65.669c2.379-.015,5.3-.03,6.874-.03a14.82,14.82,0,1,0,0-29.639Zm-.015,22.021c-1.633,0-4.639.016-7.112.031-.012-2.555-.025-5.691-.025-7.366,0-1.419-.01-4.674-.02-7.335h7.157a7.338,7.338,0,1,1,0,14.67Z" transform="translate(67.535 39.506)" fill="#fff"/>
    <path id="Shape-3" data-name="Shape" d="M59.19,39.051c-.01-.027-.021-.054-.032-.08a4.878,4.878,0,0,0-8.979,0c-.009.023-.019.046-.028.069L35.26,77.313A3.84,3.84,0,0,0,37.543,82.3a3.974,3.974,0,0,0,5.094-2.236l2.74-7.041H63.851l2.711,7.03a3.948,3.948,0,0,0,3.694,2.5,4.013,4.013,0,0,0,1.393-.25,3.841,3.841,0,0,0,2.3-4.98ZM49.7,65.4l6.153-17.151,6.1,17.151Z" transform="translate(41.853 39.506)" fill="#fff"/>
  </g>
</svg>
