<svg xmlns="http://www.w3.org/2000/svg" xmlns:xlink="http://www.w3.org/1999/xlink" width="116.589" height="116.589" viewBox="0 0 116.589 116.589">
  <defs>
    <linearGradient id="linear-gradient" x1="0.5" x2="0.5" y2="1" gradientUnits="objectBoundingBox">
      <stop offset="0" stop-color="#0094ff"/>
      <stop offset="1" stop-color="#08a3b7"/>
    </linearGradient>
    <linearGradient id="linear-gradient-2" x1="0.5" x2="0.5" y2="1" gradientUnits="objectBoundingBox">
      <stop offset="0" stop-color="#d8e7f3"/>
      <stop offset="1" stop-color="#d0dae3"/>
    </linearGradient>
  </defs>
  <g id="Group_164" data-name="Group 164" transform="translate(-1018.731 -915.5)">
    <path id="Path" d="M30.014,77.132H87.893c7.327,0,13.273-6.4,13.273-14.277a14.4,14.4,0,0,0-7.481-12.849,18.836,18.836,0,0,0,1.062-6.259c0-9.748-7.353-17.652-16.416-17.652a15.092,15.092,0,0,0-3.387.377C72.481,18.082,65.191,12,56.58,12s-15.9,6.082-18.364,14.471a15.058,15.058,0,0,0-3.387-.377c-9.062,0-16.41,7.9-16.41,17.652a18.836,18.836,0,0,0,1.062,6.259A14.4,14.4,0,0,0,12,62.855c0,7.881,5.941,14.277,13.273,14.277Z" transform="translate(1020.443 915.813)" fill-rule="evenodd" fill="url(#linear-gradient)"/>
    <g id="Group" transform="translate(1018.731 915.5)">
      <path id="Shape" d="M107.689,44.154a21.564,21.564,0,0,0,.846-6c0-12.257-10.3-22.229-22.95-22.229a24,24,0,0,0-2.7.151A25.692,25.692,0,0,0,74.111,5.073a27.2,27.2,0,0,0-31.639,0A25.691,25.691,0,0,0,33.7,16.081a24.12,24.12,0,0,0-2.7-.15c-12.65,0-22.943,9.972-22.943,22.229a21.565,21.565,0,0,0,.846,6A18.15,18.15,0,0,0,0,59.756C0,69.91,8.526,78.171,19.005,78.171h3.6v7.405a4.905,4.905,0,0,0,4.975,4.82h.929a29.2,29.2,0,0,0,2.6,6.081l-.652.631a4.719,4.719,0,0,0-.007,6.826l5.21,5.054a5.107,5.107,0,0,0,7.034,0l.664-.641a31.22,31.22,0,0,0,6.272,2.518v.9a4.912,4.912,0,0,0,4.982,4.827h7.362a4.912,4.912,0,0,0,4.982-4.827v-.9a31.376,31.376,0,0,0,6.268-2.516l.658.638a5.1,5.1,0,0,0,7.042,0l5.215-5.053a4.731,4.731,0,0,0-.005-6.816l-.659-.639a29.487,29.487,0,0,0,2.6-6.079H89a4.909,4.909,0,0,0,4.982-4.82V78.171h3.6c10.48,0,19.005-8.261,19.005-18.414A18.149,18.149,0,0,0,107.689,44.154ZM89.284,85.576a.281.281,0,0,1-.281.266H86.258a2.335,2.335,0,0,0-2.293,1.775,25.083,25.083,0,0,1-3.426,8.007,2.224,2.224,0,0,0,.326,2.825l1.945,1.885a.277.277,0,0,1,0,.382l-5.21,5.047a.3.3,0,0,1-.393,0l-1.945-1.885a2.408,2.408,0,0,0-2.917-.316,26.638,26.638,0,0,1-8.254,3.312,2.3,2.3,0,0,0-1.836,2.222v2.666a.287.287,0,0,1-.281.272H54.614a.284.284,0,0,1-.281-.272V109.1a2.294,2.294,0,0,0-1.837-2.222,26.515,26.515,0,0,1-8.251-3.31,2.407,2.407,0,0,0-2.916.312l-1.955,1.887a.3.3,0,0,1-.392,0l-5.2-5.049a.264.264,0,0,1-.081-.194.25.25,0,0,1,.081-.188l1.945-1.885a2.224,2.224,0,0,0,.324-2.828,24.782,24.782,0,0,1-3.423-8,2.335,2.335,0,0,0-2.294-1.78H27.579a.274.274,0,0,1-.274-.266V78.171h10.95a19.257,19.257,0,0,0-.388,3.836c0,10.912,9.162,19.789,20.425,19.789s20.431-8.877,20.431-19.789a19.12,19.12,0,0,0-.392-3.836H89.284v7.405Zm8.3-11.959H68.844a2.278,2.278,0,1,0,0,4.554h4.667a14.7,14.7,0,0,1,.511,3.836,15.735,15.735,0,0,1-31.453,0,14.786,14.786,0,0,1,.506-3.836h4.665a2.278,2.278,0,1,0,0-4.554H19.005A14.1,14.1,0,0,1,4.7,59.756a13.74,13.74,0,0,1,8.063-12.475,2.249,2.249,0,0,0,1.172-2.854,17.164,17.164,0,0,1-1.18-6.268c0-9.746,8.183-17.674,18.242-17.674a18.513,18.513,0,0,1,3.757.375,2.36,2.36,0,0,0,2.735-1.541,22.036,22.036,0,0,1,41.6,0,2.36,2.36,0,0,0,2.733,1.541,18.589,18.589,0,0,1,3.759-.375c10.062,0,18.248,7.929,18.248,17.674a17.163,17.163,0,0,1-1.18,6.268,2.249,2.249,0,0,0,1.172,2.854,13.74,13.74,0,0,1,8.063,12.475,14.1,14.1,0,0,1-14.3,13.86Z" transform="translate(0 0)" fill="url(#linear-gradient-2)"/>
      <path id="Path-2" data-name="Path" d="M74.285,36A2.1,2.1,0,0,0,72,37.83V55.881a2.342,2.342,0,0,0,4.571,0V37.83A2.1,2.1,0,0,0,74.285,36Z" transform="translate(2.679 -0.787)" fill="#fff"/>
      <path id="Shape-2" data-name="Shape" d="M62.773,36H57.784A1.812,1.812,0,0,0,56,37.8V55.908a1.784,1.784,0,1,0,3.567,0V49.837c1.109-.007,2.473-.014,3.206-.014a6.911,6.911,0,1,0,0-13.822Zm-.007,10.27c-.761,0-2.163.007-3.317.014-.006-1.192-.012-2.654-.012-3.435,0-.662,0-2.18-.009-3.421h3.338a3.422,3.422,0,1,1,0,6.842Z" transform="translate(1.611 -0.787)" fill="#fff"/>
      <path id="Shape-3" data-name="Shape" d="M46.281,37.423l-.015-.037a2.275,2.275,0,0,0-4.187,0l-.013.032L35.121,55.267a1.791,1.791,0,0,0,1.065,2.326,1.853,1.853,0,0,0,2.376-1.043l1.278-3.284h8.615l1.264,3.279a1.841,1.841,0,0,0,1.723,1.166,1.872,1.872,0,0,0,.65-.117,1.791,1.791,0,0,0,1.072-2.322ZM41.856,49.712l2.87-8,2.844,8Z" transform="translate(0.841 -0.787)" fill="#fff"/>
    </g>
  </g>
</svg>
