<?xml version="1.0" encoding="utf-8"?>
<svg version="1.1" id="Layer_1" xmlns="http://www.w3.org/2000/svg" xmlns:xlink="http://www.w3.org/1999/xlink" x="0px" y="0px"
	 width="800px" height="600px" viewBox="0 0 800 600" enable-background="new 0 0 800 600" xml:space="preserve">
<g>
	<rect x="0.5" fill="#89D3E2" width="799" height="600"/>
	<g>
		<g>
			<path fill="#6EC4D7" d="M455.3,211.5L439.5,168l-50.7,11.3c-7.7-11.9-17.3-22.2-28.1-30.7l16.4-49.3l-41.9-19.5l-27.9,43.8
				c-13.5-2.8-27.5-3.5-41.6-1.9l-23.2-46.5L199,91.1l11.3,50.7c-11.9,7.7-22.2,17.3-30.7,28.1l-49.3-16.4l-19.5,41.9l43.9,27.9
				c-2.8,13.5-3.5,27.5-1.9,41.6l-46.5,23.2l15.8,43.5l50.7-11.3c7.7,11.9,17.3,22.2,28.1,30.7l-16.4,49.3l41.9,19.5l27.9-43.9
				c13.5,2.8,27.5,3.5,41.6,1.9l23.2,46.5l43.5-15.8l-11.3-50.7c11.9-7.7,22.2-17.3,30.7-28.1l49.3,16.4l19.5-41.9L407,276.3
				c2.8-13.5,3.5-27.5,1.9-41.6L455.3,211.5z M305.9,318.8c-38.1,13.9-80.2-5.8-94.1-43.9c-13.9-38.1,5.8-80.2,43.9-94.1
				c38.1-13.9,80.2,5.8,94.1,43.9C363.6,262.8,344,304.9,305.9,318.8z"/>
			<g>
				<g>
					<path fill="#6EC4D7" d="M693.7,306.9l-7-19.4l-22.6,5c-3.4-5.3-7.7-9.9-12.5-13.7l7.3-21.9l-18.7-8.7l-12.4,19.5
						c-6-1.3-12.2-1.6-18.5-0.8l-10.3-20.7l-19.4,7l5,22.6c-5.3,3.4-9.9,7.7-13.7,12.5l-21.9-7.3l-8.7,18.7l19.5,12.4
						c-1.3,6-1.6,12.2-0.8,18.5L538.3,341l7,19.4l22.6-5c3.4,5.3,7.7,9.9,12.5,13.7l-7.3,21.9l18.7,8.7l12.4-19.5
						c6,1.3,12.2,1.6,18.5,0.8l10.3,20.7l19.4-7l-5-22.6c5.3-3.4,9.9-7.7,13.7-12.5l21.9,7.3l8.7-18.7l-19.5-12.4
						c1.3-6,1.6-12.2,0.8-18.5L693.7,306.9z M627.1,354.6c-17,6.2-35.7-2.6-41.9-19.5c-6.2-17,2.6-35.7,19.5-41.9
						c17-6.2,35.7,2.6,41.9,19.5C652.9,329.7,644.1,348.5,627.1,354.6z"/>
				</g>
			</g>
			<path fill="#6EC4D7" d="M548.6,424.3c0-6.6-0.9-12.9-2.6-18.9l26.5-19.6L559.3,363l-30.5,12.7c-8.8-9.1-20.1-15.8-32.8-19
				l-3.8-32.8H466l-4.3,32.7c-12.7,3.2-24,9.9-32.9,19l-30.3-13.1l-13.1,22.7l26.2,20.1c-1.7,6-2.6,12.4-2.6,19
				c0,6.6,0.9,12.9,2.6,18.9l-26.5,19.6l13.1,22.7l30.5-12.7c8.8,9.1,20.1,15.8,32.8,19l3.8,32.8h26.2l4.3-32.7
				c12.7-3.2,24-9.9,32.9-19l30.3,13.1l13.1-22.7l-26.2-20.1C547.6,437.3,548.6,430.9,548.6,424.3z M478.8,462.4
				c-21,0-38.1-17-38.1-38.1c0-21,17-38.1,38.1-38.1c21,0,38.1,17,38.1,38.1C516.9,445.3,499.8,462.4,478.8,462.4z"/>
		</g>
	</g>
	<g>
		<g>
			<polygon fill="#2F2F39" points="685.1,315.9 694,321.1 681.6,365.4 657,356.6 			"/>
			<g>
				<path fill="#D1D3D4" d="M479.5,236.9l19.2,17.2c0,0-30.2,33.8-50,17.3L479.5,236.9z"/>
				<path fill="#2F2F39" d="M615.3,244.3c0,0-66.8,22.1-69,27.9s-23.1,43.8-21.9,49.6c1.2,5.8,44.1,9.5,44.1,9.5
					s-1.9-15.5-17.3-19.6l10.7-27.4l53.4-14.4V244.3z"/>
				<path fill="#A7A9AC" d="M543.2,273.7l22.6,8.7c0,0-4.9,23.7-19.9,44.8l-22.4-13.4L543.2,273.7z"/>
				<path fill="#A7A9AC" d="M536.6,330.7l2.8-24.2c0,0,42.6,5,40.6,29.3L536.6,330.7z"/>
				<path fill="#A7A9AC" d="M611,242.1c0,0-31.7,12.3-60.7,24.4l8.2,22.7c0,0,37.2-7,62-19.9L611,242.1z"/>
				<path fill="#2F2F39" d="M615.3,244.3c0,0-50.9-16.5-70.9-16.5c-20,0-50.9,4-57.9,6.6c-7,2.6-21.5,27.2-21.5,27.2
					s14,7.2,31.8-6.1c0,0,40.5-7.1,47.9-7.9c7.4-0.8,66.3,16,66.3,16L615.3,244.3z"/>
				<path fill="#BCBEC0" d="M614.8,238.8c0,0-33.8,4.2-64.8,9l2.5,24.1c0,0,37.8,2.2,65-4.3L614.8,238.8z"/>
				<path fill="#2F2F39" d="M607.9,256.4c0,0-56.2-6.5-62.3-5.3c-6.1,1.1-38.1,30.1-41.1,35.5c-3,5.4-9.9,40.6-9.9,40.6
					s17.6,1.2,27.4-29.3l32.6-29.4l53.3-0.3V256.4z"/>
				<path fill="#D1D3D4" d="M618.8,235.7c0,0-35.4-6.2-68.3-11l-4.9,25.1c0,0,37.5,14,67,15.8L618.8,235.7z"/>
				<path fill="#2F2F39" d="M614.8,238.8c0,0-39.6-34.9-58.6-41.6c-19-6.6-45-14.4-54.9-14.9c-9.9-0.4-27.6,0-27.6,0s7,21,23.1,22.5
					c16.1,1.4,50.3,12.6,50.3,12.6l63.1,48.3l8.7-23.6L614.8,238.8z"/>
				<path fill="#ECF0F1" d="M694,316c0,0-30.5-41.3-75.1-78.4l-52.8,98.2l101.5,27.2L694,316z"/>
				<path fill="#ECF0F1" d="M618.9,237.6c0,0-28.9-21.5-56.1-40.4l-15.7,20.2c0,0,27.3,29.3,52.8,44.2L618.9,237.6z"/>
				<path fill="#D1D3D4" d="M540.1,224.7l4.3,25.3c0,0-24.2,8.3-51.5,6.1l0.1-27.6L540.1,224.7z"/>
				<path fill="#00ACD2" d="M495,199.2h-23.5v0c0,3.3,0.9,6.5,2.8,9.2c1.7,2.5,2.7,5.4,2.7,8.7c0,8.9-7.7,16.1-16.9,15
					c-6.9-0.8-12.5-6.3-13.3-13.2c-0.5-3.9,0.6-7.6,2.6-10.5c1.9-2.7,2.8-5.9,2.8-9.2h-23.5c-6,0-10.8,4.8-10.8,10.8v26.9
					c-3.3,0-6.5-0.9-9.2-2.8c-2.9-2-6.6-3.1-10.5-2.6c-6.9,0.8-12.4,6.4-13.2,13.3c-1,9.1,6.1,16.9,15,16.9c3.2,0,6.2-1,8.7-2.7
					c2.7-1.9,6-2.8,9.2-2.8h0V283c0,6,4.8,10.8,10.8,10.8h23.5v0c0-3.3-0.9-6.5-2.8-9.2c-1.7-2.5-2.7-5.4-2.7-8.7
					c0-8.9,7.7-16.1,16.9-15c6.9,0.8,12.5,6.3,13.3,13.2c0.5,3.9-0.6,7.6-2.6,10.5c-1.9,2.7-2.8,5.9-2.8,9.2H495
					c6,0,10.8-4.8,10.8-10.8v-73C505.8,204,501,199.2,495,199.2z"/>
				<path fill="#BCBEC0" d="M540.8,251.1l17.5,16.8c0,0-13.7,20-35.7,33.7l-15.5-21L540.8,251.1z"/>
				<path fill="#ECF0F1" d="M496.8,179.1v25.8c0,0-45.4,0-46.2-25.8H496.8z"/>
				<polygon fill="#2F2F39" points="589.1,300.4 607.9,347 589.1,343.3 				"/>
				<path fill="#BCBEC0" d="M499.7,290.2l23.7,5.5c0,0-9.8,41.8-33.7,37L499.7,290.2z"/>
				<path fill="#2F2F39" d="M591.7,340.8c0,0-46.2,4.7-51.5,2.5c-5.3-2.3-57-33.4-57-33.4s13.6-14.9,26-9.5
					c12.4,5.4,36.4,16.7,36.4,16.7l44.9-13.8L591.7,340.8z"/>
				<path fill="#ECF0F1" d="M588,295.2c0,0,5.4,21.3,7.8,51.9h-48.7v-33.5L588,295.2z"/>
				<path fill="#ECF0F1" d="M547.1,313.6l-13.2,29.7l-37.1-22.1l18.2-20.8C515,300.4,529,302.8,547.1,313.6z"/>
				<path fill="#ECF0F1" d="M496.8,321.1l12.4-25.9c0,0-27.2-16.4-38.8,13L496.8,321.1z"/>
				<path fill="#D1D3D4" d="M661.7,336.8l-0.7-0.2c-39.4-14.6-51.6-33.8-52.1-34.6l-0.2-0.3l18.2-57.2c0.5,0.4,0.9,0.8,1.4,1.2
					l-17.7,55.8c1.7,2.5,14.8,20,50.4,33.3l19.6-35.5c0.4,0.5,0.8,0.9,1.1,1.4L661.7,336.8z"/>
				<path fill="#ECF0F1" d="M552.1,192.3l-5,25.2c0,0-25.6-0.8-50.3-12.6l9.9-25.8L552.1,192.3z"/>
			</g>
			<polygon fill="#ECF0F1" points="694,321.1 681.6,368.8 799.5,420.9 799.5,323.7 			"/>
			<polygon fill="#D1D3D4" points="685,355.7 799.5,389.1 799.5,420.9 681.6,368.8 			"/>
		</g>
		<g>
			<polygon fill="#2F2F39" points="114.9,315.9 106,321.1 118.4,365.4 143,356.6 			"/>
			<path fill="#F29C1F" d="M320.5,236.9l-19.2,17.2c0,0,30.2,33.8,50,17.3L320.5,236.9z"/>
			<path fill="#2F2F39" d="M184.7,244.3c0,0,66.8,22.1,69,27.9s23.1,43.8,21.9,49.6c-1.2,5.8-44.1,9.5-44.1,9.5s1.9-15.5,17.3-19.6
				L238,284.3l-53.4-14.4V244.3z"/>
			<path fill="#E57E25" d="M256.8,273.7l-22.6,8.7c0,0,4.9,23.7,19.9,44.8l22.4-13.4L256.8,273.7z"/>
			<path fill="#E57E25" d="M263.4,330.7l-2.8-24.2c0,0-42.6,5-40.6,29.3L263.4,330.7z"/>
			<path fill="#E57E25" d="M189,242.1c0,0,31.7,12.3,60.7,24.4l-8.2,22.7c0,0-37.2-7-62-19.9L189,242.1z"/>
			<path fill="#2F2F39" d="M184.7,244.3c0,0,50.9-16.5,70.9-16.5c20,0,50.9,4,57.9,6.6c7,2.6,21.5,27.2,21.5,27.2s-14,7.2-31.8-6.1
				c0,0-40.5-7.1-47.9-7.9c-7.4-0.8-66.3,16-66.3,16L184.7,244.3z"/>
			<path fill="#F29C1F" d="M185.2,238.8c0,0,33.8,4.2,64.8,9l-2.5,24.1c0,0-37.8,2.2-65-4.3L185.2,238.8z"/>
			<path fill="#2F2F39" d="M192.1,256.4c0,0,56.2-6.5,62.3-5.3c6.1,1.1,38.1,30.1,41.1,35.5c3,5.4,9.9,40.6,9.9,40.6
				s-17.6,1.2-27.4-29.3l-32.6-29.4l-53.3-0.3V256.4z"/>
			<path fill="#F29C1F" d="M181.2,235.7c0,0,35.4-6.2,68.3-11l4.9,25.1c0,0-37.5,14-67,15.8L181.2,235.7z"/>
			<path fill="#2F2F39" d="M185.2,238.8c0,0,39.6-34.9,58.6-41.6c19-6.6,45-14.4,54.9-14.9c9.9-0.4,27.6,0,27.6,0s-7,21-23.1,22.5
				c-16.1,1.4-50.3,12.6-50.3,12.6l-63.1,48.3l-8.7-23.6L185.2,238.8z"/>
			<path fill="#F0C419" d="M106,316c0,0,30.5-41.3,75.1-78.4l52.8,98.2l-101.5,27.2L106,316z"/>
			<path fill="#F0C419" d="M181.1,237.6c0,0,28.9-21.5,56.1-40.4l15.7,20.2c0,0-27.3,29.3-52.8,44.2L181.1,237.6z"/>
			<path fill="#F29C1F" d="M259.9,224.7l-4.3,25.3c0,0,24.2,8.3,51.5,6.1l-0.1-27.6L259.9,224.7z"/>
			<path fill="#F29C1F" d="M259.2,251.1l-17.5,16.8c0,0,13.7,20,35.7,33.7l15.5-21L259.2,251.1z"/>
			<polygon fill="#2F2F39" points="210.9,300.4 192.1,347 210.9,343.3 			"/>
			<path fill="#F29C1F" d="M300.3,290.2l-23.7,5.5c0,0,9.8,41.8,33.7,37L300.3,290.2z"/>
			<path fill="#2F2F39" d="M208.3,340.8c0,0,46.2,4.7,51.5,2.5c5.3-2.3,57-33.4,57-33.4s-13.6-14.9-26-9.5
				c-12.4,5.4-36.4,16.7-36.4,16.7l-44.9-13.8L208.3,340.8z"/>
			<path fill="#F0C419" d="M212,295.2c0,0-5.4,21.3-7.8,51.9h48.7v-33.5L212,295.2z"/>
			<path fill="#F0C419" d="M252.9,313.6l13.2,29.7l37.1-22.1L285,300.4C285,300.4,271,302.8,252.9,313.6z"/>
			<path fill="#F29C1F" d="M138.3,336.8l0.7-0.2c39.4-14.6,51.6-33.8,52.1-34.6l0.2-0.3l-18.2-57.2c-0.5,0.4-0.9,0.8-1.4,1.2
				l17.7,55.8c-1.7,2.5-14.8,20-50.4,33.3l-19.6-35.5c-0.4,0.5-0.8,0.9-1.1,1.4L138.3,336.8z"/>
			<polygon fill="#F0C419" points="106,321.1 118.4,368.8 0.5,420.9 0.5,323.7 			"/>
			<polygon fill="#F29C1F" points="115,355.7 0.5,389.1 0.5,420.9 118.4,368.8 			"/>
			<path fill="#ECF0F1" d="M381.9,283v-26.9h0c-3.3,0-6.5,0.9-9.2,2.8c-2.5,1.7-5.4,2.7-8.7,2.7c-8.9,0-16.1-7.7-15-16.9
				c0.8-6.9,6.3-12.5,13.2-13.3c3.9-0.5,7.6,0.6,10.5,2.6c2.7,1.9,5.9,2.8,9.2,2.8V210c0-6-4.8-10.8-10.8-10.8H305
				c-6,0-10.8,4.8-10.8,10.8v26.9h0c3.3,0,6.5-0.9,9.2-2.8c2.5-1.7,5.4-2.7,8.7-2.7c8.9,0,16.1,7.7,15,16.9
				c-0.8,6.9-6.3,12.5-13.2,13.3c-3.9,0.5-7.6-0.6-10.5-2.6c-2.7-1.9-5.9-2.8-9.2-2.8V283c0,6,4.8,10.8,10.8,10.8h66.1
				C377,293.8,381.9,289,381.9,283z"/>
			<path fill="#F0C419" d="M303.2,179.1v25.8c0,0,45.4,0,46.2-25.8H303.2z"/>
			<path fill="#F0C419" d="M303.2,321.1l-12.4-25.9c0,0,27.2-16.4,38.8,13L303.2,321.1z"/>
			<path fill="#F0C419" d="M247.9,192.3l5,25.2c0,0,25.6-0.8,50.3-12.6l-9.9-25.8L247.9,192.3z"/>
		</g>
	</g>
</g>
</svg>
