<svg id="Group_132" data-name="Group 132" xmlns="http://www.w3.org/2000/svg" width="54.008" height="32.302" viewBox="0 0 54.008 32.302">
  <path id="Path_65" data-name="Path 65" d="M43.525,157.423a6.732,6.732,0,0,0,.2,1.8,11.143,11.143,0,0,0,.568,1.466.933.933,0,0,1,.122.463.819.819,0,0,1-.338.6l-1.116.849a.659.659,0,0,1-1-.1,6.865,6.865,0,0,1-.636-.949c-.176-.347-.352-.733-.548-1.2a6.277,6.277,0,0,1-5.222,2.793A4.541,4.541,0,0,1,32,161.69a5.623,5.623,0,0,1-1.312-3.889,5.546,5.546,0,0,1,1.617-4.166,5.94,5.94,0,0,1,4.349-1.582,13.433,13.433,0,0,1,1.88.154c.656.108,1.332.27,2.043.455v-1.481a4.926,4.926,0,0,0-.832-3.241,3.763,3.763,0,0,0-2.895-.926,7.034,7.034,0,0,0-1.921.262,12.21,12.21,0,0,0-1.914.687,4.956,4.956,0,0,1-.622.262,1.053,1.053,0,0,1-.284.062c-.25,0-.372-.208-.372-.633v-.988a1.444,1.444,0,0,1,.122-.71,1.36,1.36,0,0,1,.5-.424,9.4,9.4,0,0,1,2.232-.91,9.625,9.625,0,0,1,2.773-.386,5.993,5.993,0,0,1,4.653,1.636,7.315,7.315,0,0,1,1.474,4.984v6.558h.034Zm-7.217,3.071a5.116,5.116,0,0,0,1.826-.363,3.923,3.923,0,0,0,1.691-1.3,3.412,3.412,0,0,0,.6-1.3,8.134,8.134,0,0,0,.176-1.759v-.849a13.1,13.1,0,0,0-3.3-.463,3.73,3.73,0,0,0-2.645.8,3,3,0,0,0-.873,2.33,3.077,3.077,0,0,0,.656,2.145,2.287,2.287,0,0,0,1.867.748Zm14.258,2.191a.924.924,0,0,1-.676-.2,1.772,1.772,0,0,1-.372-.795l-4.173-15.655a3.976,3.976,0,0,1-.162-.81c0-.324.142-.5.426-.5h1.745a.9.9,0,0,1,.69.2,1.791,1.791,0,0,1,.358.787l2.976,13.41,2.773-13.41a1.5,1.5,0,0,1,.338-.787,1.1,1.1,0,0,1,.71-.2h1.42a.985.985,0,0,1,.71.2,1.487,1.487,0,0,1,.338.787l2.8,13.572,3.077-13.572a1.82,1.82,0,0,1,.352-.787,1.039,1.039,0,0,1,.69-.2h1.657c.284,0,.44.154.44.5a3.225,3.225,0,0,1-.162.833l-4.275,15.655a1.614,1.614,0,0,1-.372.787,1.023,1.023,0,0,1-.676.208H59.67a.95.95,0,0,1-.71-.208,1.576,1.576,0,0,1-.338-.81l-2.746-13.062-2.739,13.039a1.642,1.642,0,0,1-.338.818.988.988,0,0,1-.7.2Zm22.814.54a10.486,10.486,0,0,1-2.733-.355,7.435,7.435,0,0,1-2.043-.81,1.407,1.407,0,0,1-.555-.571,1.686,1.686,0,0,1-.1-.563v-1.034c0-.424.135-.633.406-.633a.93.93,0,0,1,.318.062c.108.039.271.123.446.2a8.5,8.5,0,0,0,1.955.71,9.38,9.38,0,0,0,2.11.247,4.3,4.3,0,0,0,2.59-.671,2.27,2.27,0,0,0,.927-1.929,2.135,2.135,0,0,0-.48-1.412,4.289,4.289,0,0,0-1.792-1.049l-2.577-.91a5.227,5.227,0,0,1-3.247-7.253,5.061,5.061,0,0,1,1.278-1.659,5.4,5.4,0,0,1,1.846-1.057,7.853,7.853,0,0,1,3.429-.262c.406.062.778.139,1.15.224.352.1.69.2,1.015.324a3.816,3.816,0,0,1,.744.363,1.564,1.564,0,0,1,.528.509,1.17,1.17,0,0,1,.162.664v.957c0,.424-.135.648-.406.648a1.606,1.606,0,0,1-.676-.247,7.265,7.265,0,0,0-3.409-.787,4.2,4.2,0,0,0-2.367.563,2.311,2.311,0,0,0-.3,3.24,5.17,5.17,0,0,0,1.955,1.119l2.523.91a5.358,5.358,0,0,1,2.753,1.944,5.026,5.026,0,0,1,.812,2.832,5.788,5.788,0,0,1-.46,2.353,5.191,5.191,0,0,1-1.3,1.775,5.5,5.5,0,0,1-1.961,1.142,7.676,7.676,0,0,1-2.543.424Z" transform="translate(-28.163 -144.194)" fill="#252f3e"/>
  <path id="Path_66" data-name="Path 66" d="M76.248,179.792c-5.912,4.922-14.493,7.546-21.883,7.546a37.154,37.154,0,0,1-26.707-11.481c-.561-.571-.055-1.343.609-.9a49.24,49.24,0,0,0,26.727,8,48.234,48.234,0,0,0,20.384-4.7c.985-.509,1.834.725.862,1.543Zm2.463-3.156c-.753-1.1-5-.525-6.918-.262-.575.077-.664-.486-.144-.91,3.373-2.677,8.923-1.906,9.573-1.011.643.91-.178,7.168-3.339,10.161-.486.463-.958.231-.739-.386.718-2.006,2.32-6.52,1.56-7.592Z" transform="translate(-27.417 -155.036)" fill="#f90"/>
</svg>
