<svg id="azure" xmlns="http://www.w3.org/2000/svg" width="62.959" height="48.714" viewBox="0 0 62.959 48.714">
  <path id="Path_72" data-name="Path 72" d="M29.1,46.121,43.944,43.5l.138-.031-7.635-9.075c-2.531-2.987-5.211-6.144-7.578-9.136,0-.046,7.881-21.741,7.922-21.818.015-.026,5.38,9.233,13,22.438L62.862,48.54l.1.174-24.252-.005L14.455,48.7l14.7-2.593-.046.01ZM0,43.36c0-.01,3.6-6.256,7.988-13.871l7.988-13.85,9.31-7.814C30.411,3.53,34.618.005,34.633,0a2.008,2.008,0,0,1-.149.379L24.37,22.064l-9.93,21.3-7.22.01c-3.971.01-7.22,0-7.22-.01Z" fill="#0089d6" fill-rule="evenodd"/>
</svg>
