<svg xmlns="http://www.w3.org/2000/svg" xmlns:xlink="http://www.w3.org/1999/xlink" width="371.238" height="281.193" viewBox="0 0 371.238 281.193">
  <defs>
    <linearGradient id="linear-gradient" x1="0.5" x2="0.5" y2="1" gradientUnits="objectBoundingBox">
      <stop offset="0" stop-color="#2d5979"/>
      <stop offset="1" stop-color="#08a3b7"/>
    </linearGradient>
    <filter id="Path_59" x="127.786" y="0" width="169.275" height="106.93" filterUnits="userSpaceOnUse">
      <feOffset dy="3" input="SourceAlpha"/>
      <feGaussianBlur stdDeviation="3" result="blur"/>
      <feFlood flood-opacity="0.161"/>
      <feComposite operator="in" in2="blur"/>
      <feComposite in="SourceGraphic"/>
    </filter>
    <filter id="Ellipse_1" x="240.012" y="77.73" width="131.226" height="131.226" filterUnits="userSpaceOnUse">
      <feOffset dy="3" input="SourceAlpha"/>
      <feGaussianBlur stdDeviation="3" result="blur-2"/>
      <feFlood flood-opacity="0.161"/>
      <feComposite operator="in" in2="blur-2"/>
      <feComposite in="SourceGraphic"/>
    </filter>
    <filter id="Ellipse_2" x="21.79" y="67.811" width="94.383" height="94.383" filterUnits="userSpaceOnUse">
      <feOffset dy="3" input="SourceAlpha"/>
      <feGaussianBlur stdDeviation="3" result="blur-3"/>
      <feFlood flood-opacity="0.161"/>
      <feComposite operator="in" in2="blur-3"/>
      <feComposite in="SourceGraphic"/>
    </filter>
    <filter id="Path_60" x="0" y="61.293" width="359.005" height="219.9" filterUnits="userSpaceOnUse">
      <feOffset dy="3" input="SourceAlpha"/>
      <feGaussianBlur stdDeviation="3" result="blur-4"/>
      <feFlood flood-opacity="0.161"/>
      <feComposite operator="in" in2="blur-4"/>
      <feComposite in="SourceGraphic"/>
    </filter>
  </defs>
  <g id="cloud" transform="translate(14.732 15.838)">
    <g id="Group_130" data-name="Group 130" transform="translate(-0.132 -4.198)">
      <g transform="matrix(1, 0, 0, 1, -14.6, -11.64)" filter="url(#Path_59)">
        <path id="Path_59-2" data-name="Path 59" d="M145.116,83.264h97.406l.482-.028a17.571,17.571,0,1,0-2.947-35l-8.984.992.17-9.041.014-.709a33.867,33.867,0,0,0-65.793-11.336l-2.735,7.694-7.624-2.962a26.073,26.073,0,1,0-10.543,50.361l.567.028Z" transform="translate(22.8 6.07)" stroke="#fff" stroke-width="11.2" fill-rule="evenodd" fill="url(#linear-gradient)"/>
      </g>
      <g transform="matrix(1, 0, 0, 1, -14.6, -11.64)" filter="url(#Ellipse_1)">
        <circle id="Ellipse_1-2" data-name="Ellipse 1" cx="51.013" cy="51.013" r="51.013" transform="translate(254.61 89.33)" stroke="#fff" stroke-width="11.2" fill="url(#linear-gradient)"/>
      </g>
      <g transform="matrix(1, 0, 0, 1, -14.6, -11.64)" filter="url(#Ellipse_2)">
        <circle id="Ellipse_2-2" data-name="Ellipse 2" cx="32.592" cy="32.592" r="32.592" transform="translate(36.39 79.41)" stroke="#fff" stroke-width="11.2" fill="url(#linear-gradient)"/>
      </g>
      <g transform="matrix(1, 0, 0, 1, -14.6, -11.64)" filter="url(#Path_60)">
        <path id="Path_60-2" data-name="Path 60" d="M71.371,251.3H286.529l.771-.025a49.44,49.44,0,1,0-6.222-98.625l-7.752.721.025-7.79v-.228c0-46.79-38.1-84.753-85.107-84.753a85.12,85.12,0,0,0-80.529,57.185l-2.428,7.056-6.917-2.807A67.165,67.165,0,1,0,69.765,251.224l1.606.076Z" transform="translate(9 12.29)" stroke="#fff" stroke-width="11.2" fill-rule="evenodd" fill="url(#linear-gradient)"/>
      </g>
    </g>
    <g id="Group_131" data-name="Group 131" transform="translate(127.387 101.684)" opacity="0.7">
      <path id="Path_61" data-name="Path 61" d="M165.178,112.227l6.579-6.233.439-2.623c-11.986-10.333-31.041-9.16-41.855,2.446A28.375,28.375,0,0,0,123.93,117.2l2.345-.312,13.159-2.058,1.012-.987a17.14,17.14,0,0,1,22.522-1.721Z" transform="translate(-114.837 -96.31)" fill="#fff" opacity="0.7"/>
      <path id="Path_62" data-name="Path 62" d="M186.134,118.336A27.92,27.92,0,0,0,177.2,104.68l-9.236,8.756A15.242,15.242,0,0,1,174,125.767v1.56a7.757,7.757,0,1,1,0,15.487H157.531l-1.611,1.662v9.346l1.611,1.459H174c11.809.084,21.45-8.823,21.543-20.008a19.985,19.985,0,0,0-9.405-16.937" transform="translate(-119.843 -97.62)" fill="#fff" opacity="0.8"/>
      <path id="Path_63" data-name="Path 63" d="M135.956,162.229h16.432V149.77H135.956a8.435,8.435,0,0,1-3.374-.7l-2.328.675-6.63,6.242-.574,2.117a22.1,22.1,0,0,0,12.906,4.133" transform="translate(-114.699 -104.567)" fill="#fff" opacity="0.9"/>
      <path id="Path_64" data-name="Path 64" d="M134.406,116.72c-11.809.059-21.324,9.194-21.256,20.379a19.906,19.906,0,0,0,8.351,15.942L131.032,144a7.638,7.638,0,0,1-4.108-10.308,8.422,8.422,0,0,1,10.881-3.889,8.013,8.013,0,0,1,4.1,3.889l9.532-9.034A21.788,21.788,0,0,0,134.4,116.72" transform="translate(-113.15 -99.504)" fill="#fff"/>
    </g>
    <g id="Group_132" data-name="Group 132" transform="translate(41.672 171.645)" opacity="0.7">
      <path id="Path_65" data-name="Path 65" d="M52.869,164.229a9,9,0,0,0,.339,2.723,15.673,15.673,0,0,0,.982,2.22,1.279,1.279,0,0,1,.21.7,1.208,1.208,0,0,1-.584.911l-1.928,1.285a1.458,1.458,0,0,1-.795.28,1.427,1.427,0,0,1-.935-.432,10.422,10.422,0,0,1-1.1-1.437c-.3-.526-.608-1.11-.946-1.811a11.334,11.334,0,0,1-9.021,4.23,8.421,8.421,0,0,1-6.135-2.208,8.645,8.645,0,0,1,.526-12.2A11.131,11.131,0,0,1,41,156.1a26.4,26.4,0,0,1,3.248.234c1.133.164,2.3.409,3.529.689v-2.243c0-2.337-.491-3.961-1.437-4.908-.982-.946-2.641-1.4-5-1.4a13.76,13.76,0,0,0-3.319.4,23.11,23.11,0,0,0-3.307,1.04,9.269,9.269,0,0,1-1.075.4,2.042,2.042,0,0,1-.491.093c-.432,0-.643-.315-.643-.958v-1.5a1.955,1.955,0,0,1,.21-1.075,2.289,2.289,0,0,1,.865-.643,17.59,17.59,0,0,1,3.856-1.379,18.818,18.818,0,0,1,4.791-.584c3.646,0,6.31.818,8.039,2.477,1.683,1.659,2.547,4.172,2.547,7.548v9.932h.058ZM40.4,168.88a9.932,9.932,0,0,0,3.155-.549,6.754,6.754,0,0,0,2.921-1.963,4.908,4.908,0,0,0,1.04-1.963,10.86,10.86,0,0,0,.3-2.664v-1.285a25.61,25.61,0,0,0-5.7-.7,7.066,7.066,0,0,0-4.569,1.215A4.378,4.378,0,0,0,40.4,168.88ZM65.033,172.2a1.751,1.751,0,0,1-1.168-.3,2.565,2.565,0,0,1-.643-1.2l-7.21-23.709a5.375,5.375,0,0,1-.28-1.227.668.668,0,0,1,.736-.76h3.015a1.7,1.7,0,0,1,1.192.3,2.583,2.583,0,0,1,.619,1.192L66.435,166.8l4.791-20.308a2.158,2.158,0,0,1,.584-1.192,2.1,2.1,0,0,1,1.227-.3h2.454a1.87,1.87,0,0,1,1.227.3,2.133,2.133,0,0,1,.584,1.192l4.838,20.554,5.317-20.554a2.62,2.62,0,0,1,.608-1.192,1.973,1.973,0,0,1,1.192-.3h2.863a.67.67,0,0,1,.76.76,4.359,4.359,0,0,1-.28,1.262l-7.385,23.709a2.343,2.343,0,0,1-.643,1.192,1.938,1.938,0,0,1-1.168.315H80.761a1.8,1.8,0,0,1-1.227-.315,2.255,2.255,0,0,1-.584-1.227l-4.744-19.783-4.732,19.747a2.345,2.345,0,0,1-.584,1.239,1.876,1.876,0,0,1-1.215.3Zm39.413.818a20.524,20.524,0,0,1-4.721-.538,13.952,13.952,0,0,1-3.529-1.227,1.737,1.737,0,0,1-1.133-1.718v-1.566c0-.643.234-.958.7-.958a1.807,1.807,0,0,1,.549.093c.187.058.467.187.771.3a16.073,16.073,0,0,0,3.377,1.075,18.387,18.387,0,0,0,3.646.374,8.239,8.239,0,0,0,4.475-1.017,3.307,3.307,0,0,0,1.6-2.921,2.992,2.992,0,0,0-.83-2.138,7.7,7.7,0,0,0-3.1-1.589l-4.452-1.379a9.341,9.341,0,0,1-4.908-3.132,7.3,7.3,0,0,1-.7-7.852,7.887,7.887,0,0,1,2.208-2.512,9.734,9.734,0,0,1,3.19-1.6,15.4,15.4,0,0,1,5.924-.4c.7.094,1.344.21,1.986.339.608.152,1.192.3,1.753.491a7.014,7.014,0,0,1,1.285.549,2.572,2.572,0,0,1,.911.771,1.605,1.605,0,0,1,.28,1v1.449c0,.643-.234.982-.7.982a3.041,3.041,0,0,1-1.168-.374,14.021,14.021,0,0,0-5.889-1.192,8.076,8.076,0,0,0-4.09.853,2.985,2.985,0,0,0-1.426,2.734,2.912,2.912,0,0,0,.911,2.173,9.279,9.279,0,0,0,3.377,1.694l4.358,1.379a9.309,9.309,0,0,1,4.756,2.945,6.941,6.941,0,0,1,1.4,4.288,7.839,7.839,0,0,1-.795,3.564,8.012,8.012,0,0,1-2.243,2.688,9.886,9.886,0,0,1-3.389,1.729,14.96,14.96,0,0,1-4.394.643Z" transform="translate(-26.867 -144.194)" fill="#fff"/>
      <path id="Path_66" data-name="Path 66" d="M110.8,182.968c-10.1,7.455-24.749,11.428-37.368,11.428a67.585,67.585,0,0,1-45.606-17.387c-.958-.865-.093-2.033,1.04-1.355a90.572,90.572,0,0,0,80.45,5c1.683-.771,3.132,1.1,1.472,2.337Zm4.207-4.779c-1.285-1.659-8.53-.795-11.813-.4-.982.117-1.133-.736-.245-1.379,5.761-4.055,15.237-2.886,16.347-1.531,1.1,1.379-.3,10.855-5.7,15.389-.83.7-1.636.351-1.262-.584,1.227-3.038,3.961-9.874,2.664-11.5Z" transform="translate(-27.417 -139.236)" fill="#fff"/>
    </g>
    <g id="Group_133" data-name="Group 133" transform="translate(246.709 172.05)" opacity="0.7">
      <path id="XMLID_49_" d="M27.366,54.816V44.2A16.841,16.841,0,0,0,43,21.244a15.859,15.859,0,0,0-9.463-9.463A16.854,16.854,0,0,0,10.58,27.418H0a27.46,27.46,0,0,1,36.085-26A26.5,26.5,0,0,1,53.368,18.7,27.462,27.462,0,0,1,27.366,54.816Z" transform="translate(0 -0.06)" fill="#fff"/>
      <path id="Path_67" data-name="Path 67" d="M25.516,39.516H15V29H25.516Z" transform="translate(2.527 4.816)" fill="#fff"/>
      <path id="Path_68" data-name="Path 68" d="M15.179,46.179H7V38h8.179Z" transform="translate(1.179 6.333)" fill="#fff"/>
      <path id="Path_69" data-name="Path 69" d="M9.011,39.011H2V32H9.011Z" transform="translate(0.337 5.322)" fill="#fff"/>
    </g>
    <g id="azure" transform="translate(148.087 165.517)" opacity="0.7">
      <path id="Path_72" data-name="Path 72" d="M37.722,59.778l19.233-3.4.179-.04-9.9-11.762c-3.281-3.872-6.754-7.963-9.822-11.841,0-.06,10.214-28.179,10.267-28.278.02-.033,6.973,11.967,16.849,29.082L81.474,62.912l.126.226-31.433-.007-31.433-.007,19.047-3.36-.06.013ZM0,56.2c0-.013,4.662-8.109,10.354-17.978L20.707,20.269,32.774,10.141C39.416,4.576,44.868.007,44.888,0A2.6,2.6,0,0,1,44.7.491L31.586,28.6,18.715,56.2l-9.357.013C4.211,56.225,0,56.211,0,56.2Z" fill="#fff" fill-rule="evenodd"/>
    </g>
  </g>
</svg>
