<svg xmlns="http://www.w3.org/2000/svg" xmlns:xlink="http://www.w3.org/1999/xlink" width="150" height="150" viewBox="0 0 150 150">
  <defs>
    <filter id="bg" x="0" y="0" width="150" height="150" filterUnits="userSpaceOnUse">
      <feOffset dy="8" input="SourceAlpha"/>
      <feGaussianBlur stdDeviation="3" result="blur"/>
      <feFlood flood-opacity="0.161"/>
      <feComposite operator="in" in2="blur"/>
      <feComposite in="SourceGraphic"/>
    </filter>
  </defs>
  <g id="icon-btn" transform="translate(9 1)">
    <g transform="matrix(1, 0, 0, 1, -9, -1)" filter="url(#bg)">
      <rect id="bg-2" data-name="bg" width="132" height="132" rx="10" transform="translate(9 1)" fill="#2d5979" opacity="0.062"/>
    </g>
    <path id="Icon_awesome-code" data-name="Icon awesome-code" d="M36.154,66.3l-7.907-2.294a1.558,1.558,0,0,1-1.063-1.931L44.878,1.126A1.558,1.558,0,0,1,46.81.063l7.907,2.294A1.558,1.558,0,0,1,55.78,4.288L38.086,65.239A1.553,1.553,0,0,1,36.154,66.3ZM21.377,51.758l5.639-6.015a1.556,1.556,0,0,0-.1-2.23L15.168,33.182,26.912,22.851a1.545,1.545,0,0,0,.1-2.23l-5.639-6.015a1.557,1.557,0,0,0-2.2-.065L.494,32.041a1.545,1.545,0,0,0,0,2.268L19.173,51.822a1.546,1.546,0,0,0,2.2-.065Zm42.414.078L82.47,34.323a1.545,1.545,0,0,0,0-2.268L63.791,14.529a1.57,1.57,0,0,0-2.2.065l-5.639,6.015a1.556,1.556,0,0,0,.1,2.23L67.8,33.182,56.052,43.513a1.545,1.545,0,0,0-.1,2.23l5.639,6.015a1.558,1.558,0,0,0,2.2.078Z" transform="translate(24.518 32.816)" fill="#2d5979"/>
  </g>
</svg>
