<svg id="Group_131" data-name="Group 131" xmlns="http://www.w3.org/2000/svg" width="54.085" height="41.205" viewBox="0 0 54.085 41.205">
  <path id="Path_61" data-name="Path 61" d="M153.4,107.683l4.7-4.454.313-1.874c-8.564-7.383-22.179-6.545-29.905,1.748a20.274,20.274,0,0,0-4.58,8.136l1.675-.223,9.4-1.471.723-.705a12.246,12.246,0,0,1,16.092-1.229Z" transform="translate(-117.433 -96.31)" fill="#ea4335"/>
  <path id="Path_62" data-name="Path 62" d="M177.508,114.437a19.949,19.949,0,0,0-6.382-9.757l-6.6,6.256a10.891,10.891,0,0,1,4.309,8.811v1.115a5.542,5.542,0,1,1,0,11.065H157.071l-1.151,1.187v6.678l1.151,1.043h11.764c8.438.06,15.326-6.3,15.392-14.3a14.279,14.279,0,0,0-6.72-12.1" transform="translate(-130.143 -99.636)" fill="#4285f4"/>
  <path id="Path_63" data-name="Path 63" d="M132.271,158.472h11.74v-8.9h-11.74a6.027,6.027,0,0,1-2.411-.5l-1.663.482-4.737,4.46-.41,1.513a15.79,15.79,0,0,0,9.221,2.953" transform="translate(-117.083 -117.273)" fill="#34a853"/>
  <path id="Path_64" data-name="Path 64" d="M128.337,116.719c-8.438.042-15.236,6.569-15.188,14.561a14.223,14.223,0,0,0,5.967,11.391l6.81-6.461a5.457,5.457,0,0,1-2.935-7.365,6.017,6.017,0,0,1,7.775-2.778,5.725,5.725,0,0,1,2.929,2.778l6.81-6.455a15.567,15.567,0,0,0-12.174-5.671" transform="translate(-113.15 -104.419)" fill="#fbbc05"/>
</svg>
