<?xml version="1.0" encoding="utf-8"?>
<!-- Generator: Adobe Illustrator 24.3.0, SVG Export Plug-In . SVG Version: 6.00 Build 0)  -->
<svg xmlns="http://www.w3.org/2000/svg" width="81" height="72" viewBox="0 0 81 72">
  <path id="icon" d="M40.5,16.166,9.769,43.272A6.507,6.507,0,0,1,9,43.743V69.75A2.249,2.249,0,0,0,11.25,72H32.235L27,61.761l14.64-9L33.18,36,54,55.23l-14.64,9L44.973,72H69.75A2.249,2.249,0,0,0,72,69.75v-26a6.561,6.561,0,0,1-.74-.45ZM80.253,33.227,72,25.938V6.75A2.249,2.249,0,0,0,69.75,4.5h-9A2.249,2.249,0,0,0,58.5,6.75v7.269L44.262,1.45a5.6,5.6,0,0,0-7.516-.006l-36,31.783A2.251,2.251,0,0,0,.576,36.4l3.009,3.35a2.251,2.251,0,0,0,3.178.17L39.012,11.479a2.252,2.252,0,0,1,2.977,0L74.237,39.923a2.252,2.252,0,0,0,3.178-.17l3.009-3.35A2.249,2.249,0,0,0,80.253,33.227Z" transform="translate(0 0)" fill="#2e5979"/>
</svg>
