<?xml version="1.0" encoding="utf-8"?>
<!-- Generator: Adobe Illustrator 24.3.0, SVG Export Plug-In . SVG Version: 6.00 Build 0)  -->
<svg xmlns="http://www.w3.org/2000/svg" width="102.392" height="95.258" viewBox="0 0 102.392 95.258">
  <g id="light-bulb" transform="translate(-213.304 -203.179)">
    <g id="Icon_ionic-ios-bulb" data-name="Icon ionic-ios-bulb" transform="translate(232.203 225.625)">
      <path id="Path_6" data-name="Path 6" d="M57,26.893c0-13-11.7-23.518-24.7-23.518s-24.7,10.532-24.7,23.518c0,5.174,2.2,9.364,5.041,13.37h-.05c1.819,2.5,3.572,2.954,5.258,5.842,2.454,4.206,3.021,6.793,3.121,9.3a2.678,2.678,0,0,0,2.671,2.554H25.12a.67.67,0,0,0,.668-.668V41.515a5.4,5.4,0,0,0-.568-2.387l-3.505-7.01a1.753,1.753,0,0,1,1.569-2.537h0a1.738,1.738,0,0,1,1.569.985l4.223,8.579a5.242,5.242,0,0,1,.551,2.354v15.79a.67.67,0,0,0,.668.668H34.3a.67.67,0,0,0,.668-.668V41.5a5.242,5.242,0,0,1,.551-2.354l4.24-8.613a1.689,1.689,0,0,1,1.5-.935h0a1.68,1.68,0,0,1,1.5,2.437l-3.555,7.111a5.453,5.453,0,0,0-.568,2.387V57.289a.67.67,0,0,0,.668.668h1.669a2.67,2.67,0,0,0,2.671-2.5,20.053,20.053,0,0,1,3.071-9.347c1.686-2.888,3.438-3.338,5.258-5.842H51.96C54.8,36.257,57,32.068,57,26.893Z" fill="#ebebeb"/>
      <path id="Path_7" data-name="Path 7" d="M18.087,35.33H24.1a2.344,2.344,0,0,0,2.337-2.337h0A2.344,2.344,0,0,0,24.1,30.656H18.087a2.344,2.344,0,0,0-2.337,2.337h0A2.344,2.344,0,0,0,18.087,35.33Z" transform="translate(11.206 37.482)" fill="#ebebeb"/>
      <path id="Path_8" data-name="Path 8" d="M16.681,32.236H29.366A2.344,2.344,0,0,0,31.7,29.9h0a2.344,2.344,0,0,0-2.337-2.337H16.681A2.344,2.344,0,0,0,14.344,29.9h0A2.344,2.344,0,0,0,16.681,32.236Z" transform="translate(9.274 33.232)" fill="#ebebeb"/>
    </g>
    <rect id="Rectangle_16" data-name="Rectangle 16" width="7" height="21" rx="3.5" transform="translate(223.804 219.229) rotate(-45)" fill="#ebebeb"/>
    <rect id="Rectangle_18" data-name="Rectangle 18" width="7" height="21" rx="3.5" transform="translate(261 203.179)" fill="#ebebeb"/>
    <rect id="Rectangle_19" data-name="Rectangle 19" width="7" height="21" rx="3.5" transform="translate(221.324 281.947) rotate(-127)" fill="#ebebeb"/>
    <rect id="Rectangle_22" data-name="Rectangle 22" width="7" height="21" rx="3.5" transform="matrix(0.602, -0.799, 0.799, 0.602, 290.905, 269.309)" fill="#ebebeb"/>
    <rect id="Rectangle_23" data-name="Rectangle 23" width="7" height="21" rx="3.5" transform="translate(213.304 251.12) rotate(-90)" fill="#ebebeb"/>
    <rect id="Rectangle_24" data-name="Rectangle 24" width="7" height="21" rx="3.5" transform="translate(294.696 251.12) rotate(-90)" fill="#ebebeb"/>
    <rect id="Rectangle_25" data-name="Rectangle 25" width="7" height="21" rx="3.5" transform="translate(289.746 234.078) rotate(-135)" fill="#ebebeb"/>
  </g>
</svg>
