<svg xmlns="http://www.w3.org/2000/svg" width="101.404" height="80.446" viewBox="0 0 101.404 80.446">
  <g id="Icon_ionic-md-mail-unread" data-name="Icon ionic-md-mail-unread" transform="translate(-2.25 -4.5)">
    <path id="Path_37" data-name="Path 37" d="M53.848,18.487A13.987,13.987,0,1,1,39.862,4.5,13.987,13.987,0,0,1,53.848,18.487Z" transform="translate(49.805 0)" fill="#2d5979"/>
    <path id="Path_38" data-name="Path 38" d="M78.937,32.593,51.2,51.082,12.74,25.447V16.115L51.2,41.75,73.3,27.02a19.65,19.65,0,0,1-.262-21.4H11.582A9.355,9.355,0,0,0,2.25,14.957V73.242a9.355,9.355,0,0,0,9.332,9.332H90.847a9.355,9.355,0,0,0,9.332-9.332v-40.5a19.672,19.672,0,0,1-21.242-.153Z" transform="translate(0 2.372)" fill="#2d5979"/>
  </g>
</svg>
