<?xml version="1.0" encoding="utf-8"?>
<!-- Generator: Adobe Illustrator 24.3.0, SVG Export Plug-In . SVG Version: 6.00 Build 0)  -->
<svg xmlns="http://www.w3.org/2000/svg" width="167.049" height="139.754" viewBox="0 0 167.049 139.754">
  <path id="Path_19" data-name="Path 19" 
  d="M197.161-732.91c-11.421,2.447-19.579,8.275-23.891,17.015-5.478,11.421-2.1,32.166,8.041,49.181,12.47,20.745,32.516,35.079,63.982,45.568,5.827,1.865,22.842,6.76,37.643,10.605,27.038,7.109,45.568,12.82,51.629,15.85,1.748.932,3.147,1.165,3.147.583a1.8,1.8,0,0,0-1.049-1.515c-1.748-.7-17.715-19.7-27.5-32.982-18.181-24.474-35.079-50.929-44.4-69.693-8.391-16.549-21.561-27.271-39.858-32.749C217.09-733.26,203.338-734.309,197.161-732.91Z" 
  transform="translate(-170.664 733.543)" fill="#dde4e9"/>
</svg>
