<svg xmlns="http://www.w3.org/2000/svg" width="217.912" height="217.912" viewBox="0 0 217.912 217.912">
  <path id="Icon_awesome-globe-europe" data-name="Icon awesome-globe-europe" d="M108.956.562A108.956,108.956,0,1,0,217.912,109.519,108.937,108.937,0,0,0,108.956.562Zm87.868,108.956a87.484,87.484,0,0,1-4.745,28.293H183.16a6.942,6.942,0,0,1-5.008-2.109l-14.059-14.322a5.238,5.238,0,0,1,.044-7.337l5.492-5.492V104.73a4.989,4.989,0,0,0-1.45-3.515l-4.13-4.13a4.989,4.989,0,0,0-3.515-1.45h-7.029a4.971,4.971,0,0,1-3.515-8.479l4.13-4.13a4.989,4.989,0,0,1,3.515-1.45h14.059a4.988,4.988,0,0,0,4.965-4.965v-4.13a4.988,4.988,0,0,0-4.965-4.965H155.57a7.05,7.05,0,0,0-7.029,7.029v1.977a7.048,7.048,0,0,1-4.789,6.678l-13.883,4.613a3.5,3.5,0,0,0-2.416,3.339v.967a3.525,3.525,0,0,1-3.515,3.515h-7.029a3.525,3.525,0,0,1-3.515-3.515,3.525,3.525,0,0,0-3.515-3.515h-1.362a3.581,3.581,0,0,0-3.163,1.933l-4.13,8.216a7,7,0,0,1-6.283,3.866H85.232A7.05,7.05,0,0,1,78.2,95.592V84.476a7.055,7.055,0,0,1,2.065-4.965L89.1,70.681a10.87,10.87,0,0,0,3.163-7.688,3.536,3.536,0,0,1,2.416-3.339l17.574-5.843a5.112,5.112,0,0,0,1.933-1.186L125.958,40.85a4.971,4.971,0,0,0-3.515-8.479h-9.094L106.32,39.4v3.515a3.525,3.525,0,0,1-3.515,3.515H95.776a3.525,3.525,0,0,1-3.515-3.515V34.128a3.537,3.537,0,0,1,1.406-2.812l12.7-9.534c.835-.044,1.669-.132,2.5-.132A87.975,87.975,0,0,1,196.824,109.519ZM57.158,62.553a4.989,4.989,0,0,1,1.45-3.515L69.767,47.879a4.971,4.971,0,0,1,8.479,3.515v7.029a4.989,4.989,0,0,1-1.45,3.515l-4.13,4.13a4.989,4.989,0,0,1-3.515,1.45H62.123A4.988,4.988,0,0,1,57.158,62.553Zm56.235,134.613v-3.119a7.05,7.05,0,0,0-7.029-7.029H97.489a30.416,30.416,0,0,1-15.553-5.184L72.183,174.5a19.954,19.954,0,0,1-8-15.992V148A19.965,19.965,0,0,1,73.9,130.87l18.848-11.291a20.254,20.254,0,0,1,10.281-2.856h13.707a20.041,20.041,0,0,1,13,4.789l18.979,16.3h8.04a14.034,14.034,0,0,1,9.929,4.13l7.6,7.6a8.049,8.049,0,0,0,5.667,2.329h5.887A87.711,87.711,0,0,1,113.393,197.167Z" transform="translate(0 -0.563)" fill="#fff"/>
</svg>
