<svg xmlns="http://www.w3.org/2000/svg" xmlns:xlink="http://www.w3.org/1999/xlink" width="553.614" height="282.37" viewBox="0 0 553.614 282.37">
  <defs>
    <linearGradient id="linear-gradient" x1="0.5" x2="0.5" y2="1" gradientUnits="objectBoundingBox">
      <stop offset="0" stop-color="#2d5979"/>
      <stop offset="1" stop-color="#08a3b7"/>
    </linearGradient>
  </defs>
  <g id="Group_134" data-name="Group 134" transform="translate(0 0)">
    <path id="Path_70" data-name="Path 70" d="M4.453,72.36C-7.026,87.309,7.744,100.2,31.694,99.9s26.042,55.148,51.187,72.774,44.6,33.493,55.383,28.687-36.82-23.95-23.05-34.425,20.954,3.893,28.735,0-2.391-20.057,10.479-27.839,29.337-12.575,24.548-23.348-29.038-27.839-35.923-21.555,4.49,20.655-11.953,17.364S118.525,89.4,136.487,79.229,100.866,60.67,85.3,74.141,17.322,55.594,4.453,72.36Z" transform="translate(-0.487 -40.474)" fill="url(#linear-gradient)"/>
    <path id="Path_71" data-name="Path 71" d="M349.386,402.9c-8.407,8.933-3.55,11.826-8.044,21.516s16.336,19.392,17.029,27.2-10.407,41.621-7.57,54.156,10.168,20.1,15.842,15.372-5.439-23.412,14.427-35,39.043-42.8,38.079-53.183-18.683-5.439-23.882-13.714S360.746,390.839,349.386,402.9Z" transform="translate(-205.151 -240.192)" fill="url(#linear-gradient)"/>
    <path id="Path_72" data-name="Path 72" d="M536.076,288.876c-16.464,16.153-23.145,31.8-11.953,45.529s35.182,1.526,39.445,10.172-.8,61.81,18.778,66.141,34.337-30.775,34.592-36.373-3.813-15.515,4.072-21.619,14.742-15.005,12.463-22.129-12.973,5.578-20.348-7.63S610.58,297.024,599.391,296s-29.424-.251-35.823-8.646S542.463,282.612,536.076,288.876Z" transform="translate(-312.157 -169.996)" fill="url(#linear-gradient)"/>
    <path id="Path_73" data-name="Path 73" d="M561.061,118.1c-2.741,8.511,10.559,11.75,21.516,2.391s16.651,8.961,27.616,11.18,25.99-1.434,25.99,7.1,4.06,35.329,14.619,35.736,26.4-7.718,24.771-14.619,10.965-8.124,15.838-.4,10.558,26.7,14.212,26.145,9.339-26.145,20.32-23.3,6.9,41.015,22.743,41.015-.8-35.676,19.085-47.279,44.669-46.529,45.075-55.869S809.6,85.979,823,83.541s7.718,18.276,17.057,16.651,8.124-17.053,23.962-19.9,29.237-5.686,26.8-14.619-24.364-8.933-40.2-10.152-82.03-7.718-86.09-19.492-43.86,3.857-61.319,14.515S650,68.11,635.792,59.177s-36.469-7.714-46.864,10.559S564.714,106.754,561.061,118.1Z" transform="translate(-337.489 -19.231)" fill="url(#linear-gradient)"/>
    <path id="Path_74" data-name="Path 74" d="M398.117,23.678c-2.092,5.395,16.814-.673,22.822,7.451s7.228,43.43,24.7,43.856-2.172-11.774,14.547-18.272,25.249-18.276,25.249-29.644S499.384,13.681,498.292,6.35,410.3-7.727,398.117,23.678Z" transform="translate(-239.59 -0.204)" fill="url(#linear-gradient)"/>
  </g>
</svg>
