<?xml version="1.0" encoding="utf-8"?>
<!-- Generator: Adobe Illustrator 24.3.0, SVG Export Plug-In . SVG Version: 6.00 Build 0)  -->
<svg version="1.1" id="Layer_1" xmlns="http://www.w3.org/2000/svg" xmlns:xlink="http://www.w3.org/1999/xlink" x="0px" y="0px"
	 viewBox="0 0 205.64 56.02" style="enable-background:new 0 0 205.64 56.02;" xml:space="preserve">
<style type="text/css">
	.st0{fill:#2E5979;}
</style>
<g>
	<path class="st0" d="M38.01,40.35c0.2-3.49-0.37-7.64,0.46-11.76c1.73-8.5,9.12-13.52,17.76-12c7.77,1.37,13.28,9.03,12.11,16.84
		c-1.28,8.49-8.78,14.74-17.04,12.85c-5.75-1.31-5.47,1.17-5.45,5.09c0.01,1.57,1.47,4.87-1.38,4.63c-2.52-0.21-6.79-0.16-6.49-5.06
		C38.17,47.64,38.01,44.32,38.01,40.35z M53.24,38.64c3.92,0.02,7.37-3.4,7.3-7.22c-0.07-3.67-3.27-6.88-6.99-7
		c-3.96-0.13-7.48,3.1-7.56,6.94C45.91,35.21,49.31,38.63,53.24,38.64z"/>
	<path class="st0" d="M142.02,31.23c0,3.32-0.36,6.68,0.09,9.94c0.67,4.94-1.89,5.81-5.75,5.06c-2.51-0.49-4.82-0.09-7.27,0.24
		c-8.77,1.19-16.64-5.32-17.21-14.03c-0.56-8.55,6.17-16.16,14.78-15.94c3.91,0.1,7.77,0.2,11.64-0.25
		c2.69-0.31,3.96,0.54,3.78,3.53C141.84,23.58,142.02,27.41,142.02,31.23z M127.21,38.64c4.07-0.07,7.21-3.42,7.02-7.48
		c-0.18-3.87-3.31-6.82-7.2-6.78c-4.05,0.04-7.22,3.41-7.02,7.46C120.2,35.73,123.35,38.7,127.21,38.64z"/>
	<path class="st0" d="M184.4,35.41c3.49,3.6,6.41,3.91,9.37,2.38c3.93-2.02,5.28,1.46,6.49,3.38c1.32,2.1-1.61,2.78-3.03,3.54
		c-6.1,3.28-13.51,1.84-18.14-3.35c-4.28-4.79-4.86-12.55-1.36-18.07c3.63-5.73,10.92-8.28,17.44-6.11
		c6.47,2.15,10.66,8.53,10.46,15.32c-0.07,2.59-1.22,2.96-3.36,2.93C196.74,35.35,191.21,35.41,184.4,35.41z M195.51,27.47
		c-3.05-4.52-7.4-4.49-10,0C188.85,27.47,192.12,27.47,195.51,27.47z"/>
	<path class="st0" d="M26.84,26.96c0,2.32,0.11,4.65-0.02,6.96c-0.38,6.83-5.7,12.2-12.41,12.64C7.65,47.01,1.32,42.48,0.47,35.71
		c-0.7-5.56-0.41-11.25-0.4-16.88c0.01-3.32,2.72-2.09,4.46-2.27c1.88-0.19,3.72-0.2,3.66,2.61c-0.09,4.31-0.02,8.62,0,12.94
		c0.02,3.59,1.33,6.38,5.35,6.34c4.02-0.04,5.27-2.83,5.25-6.43c-0.01-4.15,0.12-8.3-0.03-12.44c-0.12-3.45,2.16-3.01,4.33-3.07
		c2.15-0.06,4.03-0.08,3.8,2.99c-0.18,2.47-0.04,4.97-0.04,7.46C26.86,26.96,26.85,26.96,26.84,26.96z"/>
	<path class="st0" d="M153.81,28.97c0-4.31-0.16-8.64,0.04-12.94c0.35-7.56,5.07-13.51,12.08-15.31c1.4-0.36,3.79-1.72,4.2,0.63
		c0.39,2.25,1.89,5.43-1.55,6.97c-1.53,0.68-3.13,1.18-4.25,2.47c-1.2,1.39-2.59,2.98-1.8,4.84c0.7,1.66,2.68,0.98,4.03,0.87
		c3.16-0.25,3.95,1.13,3.95,4.07c0,2.9-1.12,4-3.83,3.61c-4.06-0.59-5.13,1.27-4.87,5.05c0.3,4.29-0.11,8.63,0.13,12.94
		c0.18,3.24-0.9,4.24-4.18,4.27c-3.59,0.04-4.12-1.57-4.01-4.53c0.16-4.31,0.04-8.63,0.04-12.94
		C153.78,28.97,153.8,28.97,153.81,28.97z"/>
	<path class="st0" d="M91.91,16.33c2.92-0.1,5.67,0.6,8.04,2.23c1.64,1.12,4.9,2.36,3.39,4.5c-1.42,2.01-3.72,5.32-7.74,2.42
		c-3.03-2.19-6.45-1.51-8.92,1.44c-2.45,2.93-2.36,6.21-0.01,9.13c2.42,3.02,5.96,3.7,8.88,1.43c3.69-2.87,5.52,0.13,7.57,1.75
		c2.2,1.74-0.26,2.86-1.33,3.79c-4.98,4.37-12.4,4.79-18.12,1.17c-5.56-3.52-8.18-10.61-6.26-17C79.35,20.7,85.12,16.37,91.91,16.33
		z"/>
</g>
</svg>
