<svg xmlns="http://www.w3.org/2000/svg" xmlns:xlink="http://www.w3.org/1999/xlink" width="700" height="190.666" viewBox="0 0 700 190.666">
  <defs>
    <linearGradient id="linear-gradient" x1="0.5" x2="3.988" y2="1.228" gradientUnits="objectBoundingBox">
      <stop offset="0" stop-color="#fff"/>
      <stop offset="1" stop-color="#0c6e8b"/>
    </linearGradient>
  </defs>
  <g id="Group_33" data-name="Group 33" transform="translate(-690.625 -1465)">
    <path id="Path_11" data-name="Path 11" d="M38.117,97.351c.674-11.769-1.248-25.763,1.551-39.656C45.5,29.033,70.421,12.1,99.556,17.23c26.2,4.62,44.781,30.45,40.836,56.786-4.316,28.629-29.607,49.7-57.46,43.331-19.389-4.417-18.445,3.945-18.378,17.164.034,5.294,4.957,16.422-4.653,15.613-8.5-.708-22.9-.54-21.885-17.063C38.656,121.933,38.117,110.738,38.117,97.351Zm51.357-5.766c13.219.067,24.852-11.465,24.616-24.346-.236-12.376-11.027-23.2-23.571-23.6C77.165,43.2,65.3,54.087,65.026,67.036,64.756,80.018,76.221,91.551,89.473,91.585Z" transform="translate(782.101 1505.501)" fill="url(#linear-gradient)"/>
    <path id="Path_12" data-name="Path 12" d="M213.591,66.906c0,11.2-1.214,22.525.3,33.518,2.259,16.658-6.373,19.592-19.389,17.063-8.464-1.652-16.253-.3-24.515.809a51.238,51.238,0,0,1-58.033-47.31c-1.888-28.831,20.806-54.493,49.839-53.751,13.185.337,26.2.674,39.251-.843,9.071-1.045,13.353,1.821,12.746,11.9C212.984,41.11,213.591,54.025,213.591,66.906Zm-49.94,24.987a24.045,24.045,0,1,0-24.279-22.93A23.955,23.955,0,0,0,163.651,91.893Z" transform="translate(960.13 1504.534)" fill="url(#linear-gradient)"/>
    <path id="Path_13" data-name="Path 13" d="M205.637,80.475c11.769,12.139,21.615,13.185,31.6,8.026,13.252-6.812,17.8,4.923,21.885,11.4,4.451,7.081-5.429,9.374-10.217,11.937-20.57,11.06-45.557,6.2-61.169-11.3-14.432-16.152-16.388-42.32-4.586-60.933,12.241-19.322,36.823-27.921,58.809-20.6,21.817,7.25,35.946,28.764,35.272,51.66-.236,8.734-4.114,9.981-11.33,9.88C247.248,80.272,228.6,80.475,205.637,80.475ZM243.1,53.7c-10.285-15.242-24.953-15.141-33.721,0Z" transform="translate(1113.376 1505.059)" fill="url(#linear-gradient)"/>
    <path id="Path_14" data-name="Path 14" d="M90.5,51.818c0,7.823.371,15.68-.067,23.47A44.9,44.9,0,0,1,48.587,117.91c-22.8,1.517-44.14-13.758-47.007-36.587C-.78,62.575.2,43.388.231,24.4c.034-11.2,9.172-7.048,15.039-7.655,6.339-.641,12.544-.674,12.342,8.8-.3,14.534-.067,29.067,0,43.635C27.68,81.29,32.1,90.7,45.653,90.563s17.771-9.543,17.7-21.682c-.034-13.994.4-27.988-.1-41.949-.4-11.634,7.284-10.15,14.6-10.352,7.25-.2,13.589-.27,12.814,10.082-.607,8.329-.135,16.759-.135,25.156Z" transform="translate(690.623 1505.229)" fill="url(#linear-gradient)"/>
    <path id="Path_15" data-name="Path 15" d="M153.983,97.685c0-14.534-.54-29.135.135-43.635,1.18-25.493,17.1-45.557,40.735-51.626,4.721-1.214,12.78-5.8,14.163,2.124,1.315,7.587,6.373,18.31-5.227,23.5-5.159,2.293-10.555,3.979-14.331,8.329-4.046,4.687-8.734,10.049-6.07,16.321,2.36,5.6,9.037,3.3,13.589,2.934,10.656-.843,13.32,3.81,13.32,13.724,0,9.779-3.777,13.488-12.915,12.173-13.691-1.99-17.3,4.283-16.422,17.029,1.012,14.466-.371,29.1.438,43.635.607,10.926-3.035,14.3-14.1,14.4-12.106.135-13.893-5.294-13.522-15.275.54-14.534.135-29.1.135-43.635Z" transform="translate(1060.661 1464.999)" fill="url(#linear-gradient)"/>
    <path id="Path_16" data-name="Path 16" d="M127.788,16.352a44.28,44.28,0,0,1,27.111,7.52c5.53,3.777,16.523,7.958,11.431,15.174-4.788,6.778-12.544,17.939-26.1,8.16-10.217-7.385-21.75-5.092-30.079,4.856-8.262,9.88-7.958,20.941-.034,30.787,8.16,10.184,20.1,12.477,29.944,4.822,12.443-9.678,18.614.438,25.527,5.9,7.419,5.867-.877,9.644-4.485,12.78-16.793,14.736-41.814,16.152-61.1,3.945C81.253,98.428,72.418,74.52,78.893,52.973A50.814,50.814,0,0,1,127.788,16.352Z" transform="translate(875.591 1504.848)" fill="url(#linear-gradient)"/>
  </g>
</svg>