<svg id="logo" xmlns="http://www.w3.org/2000/svg" xmlns:xlink="http://www.w3.org/1999/xlink" width="700" height="190.666" viewBox="0 0 700 190.666">
  <defs>
    <linearGradient id="linear-gradient" x1="0.5" x2="3.988" y2="1.228" gradientUnits="objectBoundingBox">
      <stop offset="0" stop-color="#0c6e8b" />
      <stop offset="1" stop-color="#fff" />
    </linearGradient>
  </defs>
  <path id="Path_27" data-name="Path 27" d="M38.111,94.2c.648-11.311-1.2-24.76,1.491-38.113,5.607-27.547,29.557-43.816,57.558-38.89,25.182,4.44,43.039,29.265,39.247,54.576-4.148,27.515-28.455,47.77-55.224,41.645-18.635-4.246-17.728,3.792-17.663,16.5.032,5.088,4.764,15.783-4.472,15.005-8.167-.681-22.005-.519-21.033-16.4C38.629,117.824,38.111,107.064,38.111,94.2Zm49.358-5.542c12.7.065,23.885-11.019,23.658-23.4-.227-11.894-10.6-22.3-22.654-22.686-12.834-.421-24.242,10.047-24.5,22.492C63.714,77.54,74.733,88.624,87.469,88.656Z" transform="translate(92.345 45.709)" fill="url(#linear-gradient)" />
  <path id="Path_28" data-name="Path 28" d="M209.633,64.932c0,10.76-1.167,21.649.292,32.214,2.171,16.01-6.125,18.829-18.635,16.4-8.135-1.588-15.621-.292-23.561.778a49.244,49.244,0,0,1-55.775-45.469c-1.815-27.709,20-52.372,47.9-51.659,12.672.324,25.181.648,37.724-.81,8.718-1,12.834,1.75,12.25,11.44C209.049,40.14,209.633,52.552,209.633,64.932Zm-48,24.015A23.109,23.109,0,1,0,138.3,66.909,23.023,23.023,0,0,0,161.635,88.947Z" transform="translate(272.048 42.058)" fill="url(#linear-gradient)" />
  <path id="Path_29" data-name="Path 29" d="M204.462,77.982c11.311,11.667,20.774,12.672,30.367,7.713,12.737-6.547,17.112,4.732,21.033,10.954,4.278,6.806-5.218,9.01-9.82,11.473-19.769,10.63-43.784,5.963-58.789-10.857C173.382,81.741,171.5,56.592,182.845,38.7c11.764-18.57,35.39-26.834,56.521-19.8,20.968,6.968,34.548,27.645,33.9,49.65-.227,8.394-3.954,9.593-10.889,9.5C244.454,77.788,226.532,77.982,204.462,77.982ZM240.468,52.25c-9.885-14.649-23.982-14.551-32.409,0Z" transform="translate(426.712 42.551)" fill="url(#linear-gradient)" />
  <path id="Path_30" data-name="Path 30" d="M86.98,50.443c0,7.519.356,15.07-.065,22.556A43.154,43.154,0,0,1,46.7,113.964C24.788,115.422,4.273,100.741,1.519,78.8-.75,60.781.19,42.341.222,24.095c.032-10.76,8.815-6.773,14.454-7.357,6.093-.616,12.056-.648,11.862,8.459-.292,13.968-.065,27.936,0,41.937C26.6,78.768,30.848,87.81,43.877,87.68s17.079-9.172,17.015-20.839c-.032-13.45.389-26.9-.1-40.316-.389-11.181,7-9.755,14.033-9.949,6.968-.194,13.061-.259,12.315,9.69-.583,8-.13,16.107-.13,24.177Z" transform="translate(-0.002 42.743)" fill="url(#linear-gradient)" />
  <path id="Path_31" data-name="Path 31" d="M153.973,93.884c0-13.968-.519-28,.13-41.937,1.134-24.5,16.431-43.784,39.15-49.618,4.537-1.167,12.283-5.574,13.612,2.042,1.264,7.292,6.125,17.6-5.023,22.589-4.958,2.2-10.144,3.824-13.774,8-3.889,4.5-8.394,9.658-5.834,15.686,2.269,5.38,8.685,3.176,13.061,2.82,10.241-.81,12.8,3.662,12.8,13.19,0,9.4-3.63,12.963-12.413,11.7-13.158-1.912-16.626,4.116-15.783,16.366.972,13.9-.356,27.969.421,41.937.583,10.5-2.917,13.741-13.547,13.838-11.635.13-13.352-5.088-13-14.681.519-13.968.13-27.969.13-41.937Z" transform="translate(371.861 -0.002)" fill="url(#linear-gradient)" />
  <path id="Path_32" data-name="Path 32" d="M125.8,16.351a42.557,42.557,0,0,1,26.057,7.227c5.315,3.63,15.88,7.648,10.987,14.584C158.244,44.676,150.79,55.4,137.762,46c-9.82-7.1-20.9-4.894-28.908,4.667-7.94,9.5-7.648,20.126-.032,29.589,7.843,9.787,19.316,11.991,28.779,4.634,11.959-9.3,17.89.421,24.533,5.671,7.13,5.639-.843,9.269-4.31,12.283-16.139,14.163-40.187,15.524-58.724,3.792C81.079,95.233,72.588,72.256,78.811,51.547A48.837,48.837,0,0,1,125.8,16.351Z" transform="translate(186.503 42.373)" fill="url(#linear-gradient)" />
</svg>