<?xml version="1.0" encoding="utf-8"?>
<svg id="nl-map" xmlns="http://www.w3.org/2000/svg" width="170" height="200.383" viewBox="0 0 170 200.383">
  <g id="nl">
    <path id="path17" d="M199.034,23.188l-.655.326-2.619.326-.327.326-.982.326h-.327l-.327.326h-.655l-.655.652H191.5l-.655.326-.655.326-.327-.326-.327.326H187.9l-.982.326-1.31.326h-.655l-.655.326h-.655l-.982.326-.982.326-.327.326v.326l-.655.326-.327-.326-.327-.326-1.637-.978h-.327l-1.31.652v-.326h-.327v.326h-.327v-.326l-.327.326.327.326h.327l.327.326h.327l.327.326h.327v.326h-.982v-.326l-.655-.326v-.326h-.655l-.327.652h.327l.327.326h.327v.326l-.327.326-.327-.326v.326l.327.326h1.637v.326h-.982l-.655-.326v.326l-.327-.326v.326l.327.326h1.637l.327-.326v.652h-.327l.327.326.327-.326h.327v.326l-.327.326h-.655v.326l.327.326.327-.326h.327l-.327.326h-.655l.327.326v.326h-.327v-.326l-.327-.326v-.326h-.327l.327-.326h-.327l-.327-.326v.326l-.327.652v-.652l-.655-.326-.327.326v.326l.655.652v.326h-.327v-.326l-.327.326v-.326l-.327-.326v-1.3l-.327-.326v-.326l.327-.326h-.327v-.652l-.327-.326.327-.652v-.652l.655-.326-1.637.652h-.327l-.655-.326h-.982v.326h-.655l-.327-.326-1.31.326h-.982l-.327.326-1.31.326h-.655l-1.31.652H163.02v-.326l-.327-.326v.652l-.655.326-.655.326-.327.326-.655.326-.327.326-.655.326h-.655l-.982.652-1.31.652-.655.326-1.637.978H153.2l-.327.326-.655.326h-.327l-.327.326-.655.326-.655.326-.327.326-.655.652-.327.652-.327.326v.326h-.327v.326l-.655.326-.327.326h-.327l-.655.652-.327.326h-.327l-.327.326-.327.652h-.327l-.327.326-.327.652-.327.978-.327.326v.326h.327l-.327.326-.327.326-.327.326v.326h.327v.652l-.327.652v1.957l-.327.326v.326l-.655.326h-.327l.327.326-.327.326v.326l-.327.326h.327l.327.326.327.652v.978l.327.652h-.327l.327.326h-.327v-.978h-.327v-.652h-.655v-.326h-.327l.327.652v.326l.327.326.327.326h-.327v.652h.655v.978l.327-.326v.326h-.327v.326h.327l.327.326v.978l-.327.326V57.1l.327.978v.652l.327.326v.109l.655-.435-.655.652v-.217l-.327.217v.978h-.327l-.327.326.327.326.327.652v1.3l-.327.326h-.655l-.655.652-.327.326-.327.326.327.326v.652h.655v.326h.327l.655.652.655.652h1.637v-.326l.982.326h.655l.327.326,1.31.652h.655v.326h.655l.327-.326h.327v-.326l.327-.326v-.326l.655-.326.655.326.327-.326.655-.326h.327l.327.326v.652h1.964v.326h.327l.327-.326v.652h-.327l-1.637.326h-.327v.326l-.982,1.631-1.637,2.609v.326l-.327.978v6.2h.327l.327.326.327.326.655.978.982,1.3.327.326h7.858l-.327.326v1.3l.327.326v.326l-1.31-.326.327.326h.655v.326l.327.326v.652l.327.326.327.326v.652l.327.326v1.631l-.327.978-.327.652v.652l-.327.652v.652l-.327-.326v.652h-.327v-.652L161.71,92l.327-.652V88.736l-.327-.652-1.637-1.631v-.326h-2.292l-1.31-.326-2.947-.978H153.2l-.327-.652h-.327l-.327.326-2.292.652H149.6l-.327.326-2.619,2.283v.326h-1.964v.326l-.327.978v-.326l-.327.652v1.3l-.655.326h-.327l-.327.326-.327.652h-.655v.326l-5.566,3.587-.982.652v.326h-.327v.326h-.525l-2.094,1.3-.327.326-1.31.978h-.327v.326l.655.652v1.631l-.327.326h.327l.327.652h-.327l.327.326.327-.326h.327l1.31-.326h.655l.327.326h1.31l.982.326.655.652.982.326.327.326v.326h.327l2.947,2.609.327.652h.327l.655.326.655-.326,1.637-.652h.982l.327-.326.982-.326h.327l.327-1.3.327-.326v-.978h.327v-1.631h-.327v-.326l-.327-.652.327-.326.982-.978.655.326.982-.326h.327l.327-.326h-.327l.327-.326.327-.326.327-.326.982-.978,2.619-1.3h.655l.327.326h.327l1.31-.978.327-.652.655-.652.327-.652.327-.326v.326h.327v.326H160.4l.327.326-.327.326-.327.326-.982.978-.655.652-.655.326v.326h-.327l-.327.326H156.8l-.327.326V99.5h-.327v.326h-.655l-.655.326-.327.326h-.327l-.327.326-.655.326h-.327l-.327.326-.327.326v.326h-.655v.652h-.327v.326h-.327v.326h-.327v.326l-.655.326-.327.326-.327.326v.326l-.327.652v.652l-.327.652v.326l-.327.652-.327.326h-1.637l-.655.652-.327-.326-.327.326-.982.326h-.655l-.327.326h-.655l-.327-.326-.327-.326-.327-.326h-.327V108.3l-.327-.326h-.982l-.327-.326h-.655l-.327-.326-.655-.652v-.326l.327-.326h-.655l-.327-.326h-.327l-.327-.326h-.327v-.326l-.327-.326-.327.326h-1.964l-.327.326H132.9l-.327.326h-.327v-.326h-.327l-.327-.326-.327-.326-.327-.652h-.327v-.326h-.982l-.327-.652H127.66l-.655.326-.327-.326v.326h-.327v-.326h.327v-.326l-.327-.326h-.327l-.327.326h-.655v-.326h.327v-.652l-.655-.326h-.327v.326h-.327l-.327-.326H123.4v-.326h.655l.327-.326-.982-.652v-.326l.655.326.327.326h.327l.327-.326v.326l.327.326.327-.326v-.652h.327l.327-.326v-.652l.327-.326.327-.326.327-.326h.655v-.326l.327-.326v-.326l.655-.652h-.655l-.327-.326v.326l-.655-.326v-.978l.327-.326V94.28h-.327l-.327.326-.327-.326.655-.326h.655v-.326l-.327-.326v-.652l.327-.326.327.326v-.326l.327-.326.327-.652h-.327v-.652h-.327v-.326l-.327-.326v-.326l-.327-.652v-.326l-.655-.978v-.326l-.327-.326v-.652l-.327-.652v-.326l-.327-.326.327-.326-.327-.326V82.54h.327v-.326h.327l.327-.326h.655v.326l.327.326v-.326l.327-.326h.982l.327.326.327.326h.327l.327.326v.326h1.31l.327-.326.655-.652h.982v-.326l.327-.326h.327v-.326l.655-.326v-.326l.327-.326v-.978l.327-.652h.982l.327-.326h.327l-.327-.326h.327l.327-.326.327-.326L137.809,77l-.327-.326V74.713h-.327l-.327-.326-.655-.326h-1.31l-.327-.326h-.982l-.327.652-.327.326v.326l-.327-.326h-.982l-.655-.652-.327-.326-.327-.326.327-.652h-.327l-.327-.326h-.327l.655-4.892-.655-.978-.982-1.957v-.326l-.327-.326-.982-1.957h-.655v.652l-.655.652H125.7l-.655.326h-.327l-.327.652h-1.964V64.6h-.655l-.655-.326-.982.326-.327-.326-.982-.652h-.327l-.982-.652-.327-.326-.327-.326-.327-.652v-1.3l.327-.652v-.326h-.327v.326h-.655V59.06h-1.964l-.655.978v1.3l-.327.978V64.6l-.655,1.957-.327,1.957-.655,1.957v.652h-.327v.652l-.655,1.3v.652l-.655,1.957v2.283l-.327,1.3v1.3l-.327,1.3v1.631l-.327.326v.326l-.327,2.283-.327,2.935-.327,1.631-.327.652-.327.652-.327.652-.327.978.655-.326h.327l.655-.326.327.326h-.327v.326h-.655l-.327.326h.655v.326l-.655-.326h-.327v.326l-.655-.326v.652l.327.652-.327.326v.652l-.327.652-.327,1.3-.327.978-.655,1.631-1.31,2.609-1.964,4.239-.655.978-.327.652-.982,1.631-.327.326v.326l-.655.978-.327.652-.982,1.3-1.964,2.609-.982.652v.326l-.655.652h-.327v.652h.327l-.327.326v-.326h-.327l-.327.326-.327.652-.327.326-.982.978-.655.652-.982,1.3-.327.326-.655.652-.327.326v.326l-.655.978-.655.326-.655.652h-.327l-.327-.326-1.637-.326-.327.326h-.655l-.327.326v.326l-.327.326-.327.652.327.326.327.326v.326l-.655.652-.327.652-.655.978h.655l.327.326.327-.326,1.31-.326h.327l.327.652h-.327v.326l-.655.652v.326l-.327.326v.326l.327.326,1.31,1.957v.652l-.327.326.655-.326.327.326.327.326.327.326v.326h1.31l-.327.326.327.326h.327v-.326h.982l.327.326.655.978h.982v.326h.655l.327.652.327.326h.655l-.327.326h-.327l.327.652.327.326.982.326v.326h.655l.655.326h.655v.326l1.31.326.655.652h.327l.655.326.982.652h.327l.327.326h.655v.326H101.8l.655.326h.655l.327.326h.327l.327.326h.327l.655-.326h.327l.982-.326h.327l.327-.326h.655l.327-.652.327.326h.327l.655-.326v.652l-.655.326-.327.326h-.327l-.327.326-.327.326-2.619.652h-.655l-.982.326h-.655l-.982-.326-.327-.326h-.327l-.327-.326H99.5l-.327.326-.655.326-.327.326v.326l-.327.652-.327.326-.327.326-.327.326-.655.326H95.9l-.327.326h-.327v-.326H94.92l-.327.326H93.61l-.327.326h-.655l-.327.652h-.327v-.326h-.982L90.336,152h-1.31l-.655-.326-.982-.652h-.327l-.982-.326v.326l-.655.652H85.1l.327.652h.327l.327.652.327.652h1.964v-.326H88.7v.652l-.327.326H86.735l-.327.326H86.08l-.655-.652-1.31-.326h-.327l-.655.326-.327.326h-.327l-.655.326-.327.326-.327-.326-.655.326-.327.326v.652h.327v.326h.655l.327.326.327.326h.327v.652l.327.326h.327l.327.326.327.326v.652l.327.326h.327v.326h2.619l.327.326h.327v-.326l.655.326.655.326-.327.326v.652H88.7l1.31.652.327.326v2.283l.327,1.3h-.982l-.327-.326h-.982l-.327.326h-.327l-.327.326h-.982v-.326H86.08l-.982-.652H84.77l-.327-.978h-.327l-.655-.978v-.326l-.327-.326.327-.326-.327-.326v-.652h-.327l-.327-.326-.655-.652-.327-.326h-.655l-.327-.326h-.327l-.655-.326H79.2l-.327-.326-.327.326h-.327v.326l-.655-.978h.327l-.327-.326V158.2h-.982l-.327.326H73.966V158.2l-.327-.326h-.655l-.655.326H72l-.327.326-.982-.326h-.327l-.327-.326-.327.326-.655.326v.326l-.327.326v.326l-.327.326h-.327l-.327.326H68.4l-.655.326v-.326l-.655-.652-.327-.326v-.326l-.327-.978v-.326h-.327l-.327-.326-.655-.326-.327-.326-.327-.326v-.978l.327-.326h-.655l-.327-.326H61.524v.326H60.87l-.327.326-.655.326-.327.326-.655.326h-.327l-.327.326-.327.326-.655.326-.327.326h-.327l-.327.326-.327.326v.978l.327.652h.327l.327.326.327.326.655.326v.326h.327l.327.326.327.326v.326l.327.326v.326l.327.326v.326l.327.326.327.326.655.326v.326H61.2l.327.326v.326h1.31v-.978h.327v.652l.327.326h.982l.327-.326v-.326h1.31l-.655-.326.327-.326.655-.326h.327v.326l.982-.652v-.652l.327.326v.326H68.4l-.327.326h-.327l-.655.326.655.326H68.4l-.327.326.327.326v.326l-.327-.326-.327.326h-.327l.327-.652-.655-.326-.327-.326-.327.652.327.326.982.652.327.326v.326H68.4v.978h.327l.327.326h.327v-.326h.327l.655.326h.327v.326l.655.326v.326h.327l.655.652h.982l.655-.326h.327l.327-.326H75.6l.327.326.327-.326.327-1.3h.327v-.652h.327v-1.957l.655.326.655-.326h.327l.655-.652.327.326.327.326.327.326v.326h.327v.326H81.5l.327.326.327.326h.655v.978l.655.326h.327l.327.326h.327l.655.326.655.326h.655l.327.326h.655l.982-.326.655-.326h.655v.326h.655l.655.326.327.978v.652H92.3l.655-.326h2.292v.326l.327.326v.978l.327-.326.982.326h1.31l.327-.326.655-.326H99.5v-.652l-1.637-2.283-.327-.978.327-.326h.327v-1.3h-.327l-.327-.326.327-.326,2.292-.978h.655l.327-.326.327-.326h.655l2.292-.326.327.652-.655,1.631.327,1.957,1.637-.652h.982l1.31.326.655.326h.327V167l.327.326.655-.326-.327-1.3.982-.326h.327l.327-.978.655-.326.327-.326.327-.652.655-.326.327-.326-.327-.326h.655v-.326l.655-.326.327.326v.326h.655l.655.326h.327v.652l.327.326.327-.326.327.326-.327.652v.652h.327v.326h-.327l-.327.326-.327.326.327,1.3v.326h.655v.326h-.327l-.982-.326L116.2,167h-.655v-.326h-.327l-.655.326v.652l.327.326.655.326h.327l.982-.326h1.31l.327.326h.327v-.326h1.31l.655.652v.326h.327l.327.326h.327l1.31-1.957,1.964-1.3v-.652h.327v-.326l-.327-.326v-.326l.327-.326v-.326l.327-.326.655-.326h.327l-.327.326.327.326v.326h1.637L129.3,167l-.327.652-.982,1.957,1.964,2.283v.326l.327.326.327.326v2.283l1.31.326.327-.326.982-.326h.327V174.5l1.964,1.3-.655,2.609.327.326,1.31-.326,1.31.326h1.637l.327-.326.327-.652.982.326,1.31.326.655.326.982-.978.327-.326.982-.326.327-.326.327-.326v-.326h.327l1.31.326v.326l.327.652.982.652.327.326v1.957l.327,1.3h.327l.655.326,2.619.978.327.326v.326l.327.652.327-.326.327.326h2.619l.327-.326h.327l.327.326h.655l.327.326v.326h.327l-.327.326h-.327v.326h.327v.978h.327v-.326h.655v-.326h.655v-.326l.655-.326v.326h.327v.652l.982.652-.327.326-.327.326v.326l-.655.326h-.327v.326l-.327.326-.327.326.327.326h.655l.327.326v.326l-.327.326v.326h-.327l-.327-.326h-.655v.652l.327.326v.326h-.327v.326l.327.652h-.327v.326h-.327l-.655-.326-.327.978v.652l-.327.326v.326h.327l.327.326v.326l-.327.652v.978l-.327.326-.327.326-.327.652h-.327l-.327.652-.327.652v.326h.655l.327-.326h.327l.327.326v.326l-.655.326v.652l-.655.652v.326l-.327.326.327.326-.327.326h-.982l-.327.326v.652l-.655.652v.326h-.327l-.327.326h-.327v.326H153.2l.327.326-.327.326v1.957h.327v.652h.327v.326l.327.326h.655v.326h.655l.327.326v.326l-.327.326.327.978v.652l-.655.978v.326h.655l.327-.326h.327l.327-.326v.326l.327.326h.327l.327-.326v-.326l.327-.326.655-.978h.655v.652l.327.652.327-.326.655.978h.327l.327-.326.327.326.327-.326.327-.326v.978l.327-.326.327-.326v-.326h.655l.655-.326v.978l.655.326v-.326h.655v.326l.655-.326.327-.326h1.31l.327.326.655.326h.327v-.326h.982v-.652l.327-.652-.982-.652h-.327l-.327-.326v-.326h-.327l-.327-.326V210.7l.327-.326.327.326.655.326.327-.652.327-.326v-.326h.327l-.327-.326v-.326l-.327-.326v-.652l.327-.326h.655l.327-.326h.327v-.326h.327v.326l.655.326v-.978h.327v-.326l.327-.326v-.652l-.327-.326v.326l-.327-.652v-.652l.327-.326v-.326l.327-.326v-.326l-.327-.326h-1.31V201.9l-.327.326-.327-.326-.982-.326v-.978l-.655-.326.327-.326h.327v-.326l.327-1.3h-1.964l-.327.326H167.6l-.327-.326v-.326h-.327l-.655.326h-.327l-.327.326h-.327l-.327.326h-.327l-.327-.326.655-.652V197h-.327l-.327-.326v-.326H164v-.326h-.327V194.4l-.327-.326-.327-.652h1.31v-.326l.655-.326.327-.326v.326l.655.978.327.652v.326l.327-.326h.327v.326h.327V194.4l.327-.326v-.326l.327-.326v-.652l.327-.326v-.326l.327-.326v-.326l.327-.326.655-.326.327-.326.655-.326h.327l.327-.326.327-.326v-.326l.327-.326h.655l.327-.326v-.652l.327-.326h.655l.327-.326h.327v-.326h.655l.327-.326h.982l-.327-.326h.327l.327-.326-1.31-.978h-.327l1.964-.978-.655-.652-1.964.978-.327.326-.327.326h-1.31v-.326l-.327-.326V182l-.327-.326.327-.326h.655l-.655-1.3.655-.326.327-.652,1.31-1.3v-.326l.327-.326.655-.978.327-.652v-.326l.327-.326v-.652l.327-.326v-.326h.982V173.2l1.637-1.631-.327-.978-.327-.652v-.326l.327-.326.327-.326h-.982v-.326l.327-1.957V165.7h.327l-.327-.652.327-.326v-.978l-.327-.652-.327-.652.327-.652-.327-.326v-.978l-.327-.652-.655-.326-.655-.326-.655-1.957-.655-.326-.327-.326-.327-.326-.327-.652v-.326h-.327l-.982-.652v-1.3h.327v-.326L173.5,152v-.326l.327-.326v-.326l-.655-.326h-.655v-.326h-.655l-1.637-.652-.327-.326v-.652l.327-.326-.327-.326v-.978h.655v-.326h-.327v-.652H169.9l-.982-.652-.327-.326h-1.964V144.5l.327-.326.655-.326h.327l.327-.652v-.326h-.327v-.652h.327l-.327-.326H167.6v-.978l-.655-.652h-.655v-.326l.327-.326h.327l-.655-.326.655-.978h.327v.326h.982l.655-.326h.327l.327-.326.327-.326.327.326.327-.326.327-.326h.327l-.327-.326.327-.326.327-.326.327.326.655.652h.655l1.31.326h.982l.327.326v-1.631l-.655-.326h-.327v-.652l-.327-.652-.327-.326h-.982l.327-.326v-.326h.327l.327.326,1.31-.652.327.326h.327l.327.326.655.326v.326h-.655l.327.326.327.326.327.326.655.326h.655V135.7h.655l.327.326h.327V135.7h.327v-.326l.327.326.982.326v.326l.327.652v.326l.655-.326h.982l.327.326h.327l.327.326v.652h.982l.655.326h.327l-.327-.652.327.326-.327-.652v-.326l.327-.326h-.327v-.326h-.327l-.327-.326v-.978l.655.326h.327l.327.326h.327v.326h.655l.327-.326.327.652h.327l.327.326.327-.326.982-.326V135.7h.327l.327-.326h.655l.327-.326v-.326h.327l.327-.326v.326h.327l.327-.326.655-.326,1.637-.652h.655v-.326l.655-.326.655-.326h.327l.327-.326v.326h.655v.326l.327.326.655.652.655-.326v-.326H201l.327-.326h.327v-.326l.327-.326h.327l.655-.978.327-.326v-1.631l.655-.326h.655l.327-.652-.327-.326v-.978l-.982-.326h.327l-1.964-1.3-.327-.326-.327-.652-1.637-.652h-1.31v-1.3l.327-.326v-.652h.982l.655-.326.655-.326v-.978h.327v-.326l.327-1.3h3.6l.327-.326.327-.326.327-.326v-.326l.327-1.631h.327v-.326l.982-.652v-.326l.982-.326h.982l.327-.652v-.326l.327-.326v-.326l.327-.326v-.978l.327-.326.655-.326.327.326h1.31l.982-.652v-.326l-.982-1.3-.327-.326V107h-.327v-1.3l.327-.978v-.326h.327v-.326h.327v-.652l.327-.652v-.326l.655-.978V99.823l-.655-1.3v-.652h-.982l-.327-.652-.327-.652-.655-.652v-.326l-.327-.652V94.28l-.327-.652V93.3h-.655l-.327.652-.327.978-.655.326v.326h-.327l-1.637-.326-.655-.326-.982-.326h-.655l.327-.652H201l-.327-.326-1.31-.652-.327-.326-.655-.326.327-2.609-.655-.978-.655-1.3h.327l.655.326h.655l.327-.978h.655l.655.326.327-.326-1.964-1.631V84.5l.327-1.3v-.326l-.327-.326-.327-.326.327-.326h.327l.327-.326.327-.652H201l.327-.326h1.637l.327.326.327-.326h1.637l.327-.326.327.326h.982l.655.326v.326h2.292l.327-.326h.327l.327.326.327-.326v.326h.327l.982.326h.327l.655-.652V78.626l.327-3.261v-6.2l.982-1.957-.327-.652v-.326l.655-.978,1.964-3.261,1.31-2.283.655-2.609.327-1.631.327-.326V54.82l-.655-2.935V47.646l-.982-.652v-1.3l.327-.326v-.978l.327-.978h.327l.327-.326h.655l-.655-.326-.327-.326.327-.326V40.471l-.327-.978v-.326h-.327l-.982-.326h-.327v-.326h-1.31v-.326h-1.31l-.327-.326h-.327l-.327-.326-.327-.326v-.978l.327-.326-.327-.652v-.326h.327l.327-.652v-.326l-.655.326-.327.326h-1.964l-.655-.326v-.326h-.655l-.655-.326-.655-.326v.326l-.655-.326-.655-.326h-.327v-.326h.327l-.327-.326-.655-.652h-.327l-.327-.326V29.71l-.327-.326v-1.3l-.327-.652H204.6v-.978l.327-.978v-.326l-.982-.978-.655-.326-.327.652.327.326h-.982v-.326l.327.326v-.326l.327-.652h-.327l-.655-.326-.655.652L201,23.84l-.655-.326h-.982Zm8.185,9.457.327.326v-.326Zm11.787,6.522v-.652l-.327.326ZM121.439,169.285h-.655l.327.326ZM64.8,154.936h.327v.652h.327v.652h.327l.327.326h.327l.327.326.327.326.327-.326v.326H67.09l.655.652v.652l-.327.326.327.326v.326l.327-.652H68.4l.327-.652.327-.326,1.31-.326h.655l.327.326h1.31v-.326h.982l.327.326.327.326h.655l.327-.652h.655l.327-.326v-.978H75.93v-.326l-.327-.326-.327-.652v-.326l-.327-.326h-.655v-.326h-.655l-.655.326-.327-.326H72l-.655.326-.327.326-.655-.326-.655.326h-.327l-.327.326h-.327l-.327-.326h-.327l-.327-.326H67.09v-.326h-.327v.326l-.982.326Zm18.989-17.284-.327.326h.327Zm33.068-78.266V59.06h-.327Zm7.2,41.742v.326h.327Zm28.157.652-.655-.326.327.326Zm-17.878-4.239.525-.326-.655.326Zm6.746-47.286-.982.978h-.655l.327.326h.327l.327-.326Zm2.292-6.522v-.326l-.327.326ZM177.1,31.666v.326l.327.326Zm-1.964,1.957h.327v.326Zm-.655.326h.327l-.327.326ZM142.393,53.516h.327l-.327.326ZM128.84,78.558l.027.014-.2.1Zm-.955.666-.068.061v-.007Zm-.068.177.027.2-.491.075-.007-.007-.668.258.655-.258h.014l.471-.075Zm28.655,5.1v.326h.327v.326l.327.326v-.326h.327l.327-.326-.327-.326h-.982Zm-26.847,9.457v.652l-.327.652h.327l.327-.326h.327l.327-.326h.327V94.28l-.655.326-.327-.326Zm-29.139,45.655h.327l-.327.326Z" transform="translate(-49.988 -14.231)" fill="#fff" fill-rule="evenodd"/>
    <path id="path65" d="M403.962,26.685v.5l-.5.5h-.5v-1h0l.5-.5h.5Z" transform="translate(-284.231 -15.738)" fill="#fff" fill-rule="evenodd"/>
    <path id="path71" d="M354.928,24.68h2.985l6.468-.5,2.985-.5h1.493l1,.5h.5v.5h0v.5h-4.478l-1,.5h0l-1,.5h-.5l-1.99.5-1.99.5h-1.99l-1.493-.5h-1.99v.5l-.5.5-.5.5h-1l-.5.5h-.5l-.5.5-.5-.5h-1l-.5-.5-1-.5-.5-1v-.5l.5-.5.5-1,.5-.5,1-1h1l.5.5h.5l.5.5h-.5l-.5-.5h-1.493l-.5.5h1.493l1.99.5h2.488Z" transform="translate(-251.634 -14.231)" fill="#fff" fill-rule="evenodd"/>
    <path id="path99" d="M427.4,14.685v1h-1.99l-1,.5h0l-1.493.5-.5.5v.5l-1,.5h-1.99l-1.493.5h-2.488l-.5,1v.5h-.5v.5h-1v.5h0l-.5-1h0v-.5h.5l.5-.5-.5-.5V17.173l.5-.5,1-.5v-.5h-1.493l.5-.5,1,.5h1.493l4.976-.5h1.493l2.985-.5,1-.5Z" transform="translate(-294.358 -9.709)" fill="#fff" fill-rule="evenodd"/>
    <path id="path105" d="M299.465,71.685h0l-.5-.5h1.493v.5h-1v-.5h0Z" transform="translate(-214.795 -38.348)" fill="#fff" fill-rule="evenodd"/>
    <path id="path107" d="M305.879,33.163h-1.99l-1,.5h-.5l-.5.5h0l-1,1-.5.5h-1v.5h-.5l-.5-.5v.5h-.5l-.5.5h-.5v.5h0l-.5-.5h-1.493l-.5.5-.5.5-.5-.5-.5.5h-.5l-.5.5v.5h-.5l-1,.5h.5l-.5.5h-1.493l-.5-1h-.5v-.5l.5-.5,1-1.493,1-1.493h0l1-.5,1-.5,1.99-.5,2.985-.5h1l2.985-1,2.488-1,5.473-1.99h1.493l1.493-.5.5.5h.5l.5.5h0v1.493h0v-1l-.5-.5h0v.5l-.5.5h0l-.5.5h-1.493l-1,.5h0l-.5-.5h0v.5h.5l-.5.5h-1v-.5h-.5l.5.5v.5h-1l-.5-.5h0l.5.5.5.5h1l-.5.5h-2.488Z" transform="translate(-211.681 -16.743)" fill="#fff" fill-rule="evenodd"/>
    <path id="path109" d="M285.952,61.187h0l-.5.5-.5.5h-1.493v.5h-.5v-.5h0l.5-.5.5-.5h1.99Z" transform="translate(-204.234 -33.324)" fill="#fff" fill-rule="evenodd"/>
    <path id="path111" d="M262.4,60.68v.5l-.5.5-1,.5-2.985,1-1,.5v1.493h.5v-.5h.5l-.5.5-.5,1h0l-1.493,1-.5.5h-.5v.5l-.5.5-1,.5h-2.985l-.5.5h0v.5h-.5v-1.99l2.985-1.493,1.493-1.493,1-.5,1-1,.5-.5,1.99-1.493,1-.5.5-.5h0l1.493-.5,1-.5,1-.5h.5l1.493.5v.5l-.5.5H262.4Z" transform="translate(-183.297 -32.319)" fill="#fff" fill-rule="evenodd"/>
    <path id="path415" d="M224.952,130.182l-1,.5h0l-.5.5h-.5v.5h-.5l-.5-.5h0v-1.493h1.493l1.493-.5h1v.5h0Z" transform="translate(-163.447 -88.289)" fill="#fff" fill-rule="evenodd"/>
    <path id="path417" d="M239.918,101.114l-1,1-.5.5h-1.493l-1.493,1.99v.5h0v.5h-1l-.5-.5-1-.5h-.5l.5.5.5.5h0l.5.5h-.5v.5h-1l-.5.5h-.5l-.5.5h-.5V106.09l-.5-1.99v-1.493l.5-1.493v-.5h0l.5-1.493.5-1.493.5-1.493.5-.5,1-1.493,1-1.99,1.493-1.493h0v1l.5-.5h0l.5-.5h0l.5-.5h.5v0h-.5v-.5l-.5.5h0l-1,.5h0l1.493-2.985.5-.5,1-.5v-.5h1l.5.5.5.5v1h0v.5l.5.5h0l.5.5,1,1.493v.5h0l-.5.5v4.976l-.5,1h-.5l-.5.5h0v1l-1,1Z" transform="translate(-169.977 -45.884)" fill="#fff" fill-rule="evenodd"/>
    <path id="path433" d="M281.928,126.187h0l-6.966,5.971-.5.5h-.5v-.5h1Z" transform="translate(-198.977 -86.553)" fill="#fff" fill-rule="evenodd"/>
    <path id="path435" d="M254.455,144.661l-1-.5-1.493.5h0l1.99-1,.5-.5,1-.5h.5l1-1.493v-.5h0l1-1h1l.5-.5h.5l.5.5h.5l.5-.5h.5l.5.5h0v-.5h.5v1h0l-.5-.5h0v1h-.5v1h0l-1,1h-.5l-1,.5h-.5l-.5,1H255.45v.5h-1Z" transform="translate(-184.586 -95.218)" fill="#fff" fill-rule="evenodd"/>
    <path id="path479" d="M122.4,372.189l-1,.5h1Zm0,.5-1.493.5h-1l1-.5-1.493.5-2.985,1-1,.5h-.5l-1.493.5h-.5l-.5,1v1l.5,1.493v.5h.5v.5h.5l1-.5v-.5h-.5v-.5h1.493l.5-.5h1.493l.5-.5.5-.5,1,.5h1l1,.5v.5l.5.5.5,1h.5v1.493h-.5v.5h.5l-.5.5v.5l.5,1h.5v.5l.5.5v.5l.5,1v1h1l.5.5.5-.5v.5h2.985l.5.5,1.493.5.5,1,.5.5h1.493v.5h1l.5.5h.5v1l1,.5.5.5h2.488l1-.5H142.8l1.493-.5,1-.5.5-.5.5-1v-.5h-.5v-.5h1.99l1-.5h-.5v-1h-.5l-.5.5H142.8l-1-1.493h-1l-.5-.5h-.5l-.5-.5v-.5l-1-.5v-1h-.5l-1.493-1.493-1.493-1.493h-.5v-.5h-1l-.5-.5h-.5l-1-1-1-.5h-.5l-1.99-1-.5-.5-1.493-.5v-.5l-.5-.5h-.5v.5l-.5-.5h.5v-1h-.5v.5h-.5v-.5l-1-.5v-.5Zm-9.454,6.966-.5,1-.5.5-1,.5h.5l1,.5.5.5h.5v-.5l-.5-.5-.5-.5Z" transform="translate(-77.622 -255.189)" fill="#fff" fill-rule="evenodd"/>
    <path id="path483" d="M123.45,385.68l.5.5h0l-.5-.5h-1l-1,.5-1,.5h-.5v-.5h0l1-.5v-.5l.5-.5.5-.5v.5h.5l1,1Z" transform="translate(-82.148 -259.184)" fill="#fff" fill-rule="evenodd"/>
    <path id="path547" d="M169.952,393.685l1,.5,1.493.5,1,.5h0l.5.5h-.5l-1,.5h-1.99l-.5-.5-.5-.5h-.5l-1-1h-.5l-.5-.5h0l.5-.5h1Z" transform="translate(-126.778 -265.325)" fill="#fff" fill-rule="evenodd"/>
    <path id="path625" d="M53.91,466.19v.5h-1l-1,.5h-1l-.5.5H47.939v.5h-.5l-.5.5h-1l-.5.5h-.5v.5l.5.5v1.99l.5.5v1l-1.493,1.493-.5.5.5.5,1,1h-1v.5l.5.5.5.5v.5l-.5.5.5.5h.5l.5,1h.5l.5,1,.5-.5.5.5v1h.5l.5.5h1.99l3.981-.5-.5-3.483-.5-.5,1-.5.5.5h.5v-.5h1v-.5h.5l.5.5.5.5.5-.5-.5-1,1-.5.5.5,1,.5.5.5,1,.5h.5v-.5h1l1,1h.5l.5.5v.5h1.493l.5.5v-.5l1.99.5h.5l.5,1h.5v-.5l.5.5.5.5h.5v.5l-.5.5v3.483l.5.5h.5v-.5l.5.5h3.483l1-1h1v1h-.5l-.5.5.5.5h1l1-.5h.5l-.5-1,1-.5.5,1h.5v-.5h1l.5-.5v-.5h1l.5-1h.5l.5-.5,1-.5h.5v.5h.5l.5-.5v.5h1l.5-.5h.5l.5-.5,1-1,1-.5,1-.5,2.488-1.99.5-.5,4.976-5.971h-.5v-.5h-.5v-1l-.5.5v-1l-.5-.5h-1l.5-.5h-1v.5l-.5.5v.5l.5.5h.5v1l-.5-.5-.5.5h.5l-.5.5h.5v.5l-.5-.5h-1l.5.5v.5l-.5-1-.5-.5h-.5l.5.5.5.5h-.5v-.5h-.5v-1l-.5-.5-.5-.5H94.711v.5H96.2l-.5.5v.5l.5-.5.5.5h-.5v1h.5v.5h-.5l-1-1.99h-.5l-1.493-1v-.5h-.5v.5l-1.99-.5-.5-.5v-.5l-.5-.5v-.5l-.5-.5.5-.5h-.5l-.5-.5v-.5H87.247l-.5-.5h-1l-.5,1v.5h-.5v2.488l-.5.5v-.5l-.5.5h-.5l-1.493.5-1,.5-.5.5h-.5v.5h-1v.5l-.5.5H76.3l-.5-.5h-.5v.5l-.5-.5v1l-.5-1v-.5h-1v-.5H71.822v1.493l-1-.5v-.5l.5-.5H68.339v-.5l-.5-.5-.5-.5h-.5v-.5l-.5-.5H64.856l-1-.5h-.5l-1.493-.5h-.5v-.5h-.5l-1-.5h-.5l-.5-.5-.5-.5h-.5l-.5-.5h-.5v-.5H53.91Zm45.279,6.966-.5-.5-.5.5Zm-.5-.5h1.493l-.5-.5h-.5v-.5h-.5v-.5h-1v1l.5.5Zm1-1.493.5.5h-.5Zm1,0h.5l-.5.5ZM97.2,474.648h.5v.5h-.5Z" transform="translate(-43.959 -319.664)" fill="#fff" fill-rule="evenodd"/>
    <path id="path651" d="M289.967,117.646l1.99-1.99.5-.5,5.473-4.976h.5l1.493-.5h.5v0l.5.5-.5-.5h-.5l-1,.5h-1l-4.478,4.478-.5.5h-.5l-.5.5-1.99,1.99Z" transform="translate(-210.276 -57.44)" fill="#fff" fill-rule="evenodd"/>
    <path id="path659" d="M89.465,436.182h0l-.5-.5v-.5h.5l.5.5v.5l-.5.5h0Z" transform="translate(-66.572 -293.124)" fill="#fff" fill-rule="evenodd"/>
    <path id="path661" d="M91.45,414.187h0l-.5.5v1.493h0l.5.5.5-.5-.5-.5h0l.5.5-.5.5h0l-1-.5v1h0l-.5-.5h0l-.5.5h.5v.5h-.5v-.5l-.5.5h0v1.493h-.5l.5-1v-.5l-.5-.5h0l.5-1,1-.5v-.5h0v-.5h0v.5h1v-.5l.5-.5Z" transform="translate(-66.07 -279.866)" fill="#fff" fill-rule="evenodd"/>
    <path id="path861" d="M304.465,192.187h1l3.483,1.493.5.5,2.488,2.488,1,1.493v.5l2.488,3.981,1,2.488v.5h-.5l-.5.5-1,.5-.5,1.99-.5,1h.5l-.5,1v-1h0l.5-1,.5-1.99.5-.5,1-.5h.5v-.5l-1-2.488-3.483-5.971-2.488-2.488-.5-.5-2.985-1.493-.5,1h-1l.5-.5.5-.5h-1Z" transform="translate(-220.018 -132.278)" fill="#fff" fill-rule="evenodd"/>
    <path id="path869" d="M441.967,15.187h1v.5h0l-1,.5Z" transform="translate(-310.333 -10.212)" fill="#fff" fill-rule="evenodd"/>
    <path id="path871" d="M457.455,5.685v.5h0l.5.5.5.5.5.5-.5-.5h-1.99v1h.5l-.5,1-.5-.5-.5-1.493-.5-.5v-.5l.5-1h1.493l.5.5Z" transform="translate(-335.716 -5.187)" fill="#fff" fill-rule="evenodd"/>
    <path id="path873" d="M469.465,7.187h1.99l1,.5v0h-2.985l-.5.5h0v-.5l.5-.5Z" transform="translate(-342.75 -6.192)" fill="#fff" fill-rule="evenodd"/>
    <path id="path907" d="M120.967,395.685h0v-.5h.5l1,.5h-1.493Z" transform="translate(-82.65 -266.123)" fill="#fff" fill-rule="evenodd"/>
    <path id="path909" d="M154.45,415.675v-.5l-.5-.5-.5-.5v.5h-.5l-1-1,.5-.5h-.5v.5h-1v-.5h1.99v.5h1v.5l.5.5v1Z" transform="translate(-115.752 -278.62)" fill="#fff" fill-rule="evenodd"/>
    <path id="path911" d="M129.967,391.685h.5l.5-.5h0v1l.5,1.493,1,1h0l-.5.5h-.5v-.5l-.5-.5v-.5l-.5-1-.5-.5h0Z" transform="translate(-87.172 -264.201)" fill="#fff" fill-rule="evenodd"/>
    <path id="path913" d="M125.46,394.187l-.5.5h-1v-.5h1.493Z" transform="translate(-84.158 -265.454)" fill="#fff" fill-rule="evenodd"/>
    <path id="path915" d="M106.884,404.622l-.5.5h-1l-1-.5h-.5l1-.5v0l-1,.5h-.5l.5-1-.5-.5v-1h-.5v-1l-.5-1-1-.5-.5.5v-.5l-1.493-.5h0v-.5h0v-.5l-.5-.5H97.431l-.5.5v.5h.5l.5-.5.5.5-.5-.5-.5.5h-1l-.5,1-1,.5h-1l-1,.5-.5.5v1h.5v.5h-.5l-.5-.5h.5v-1h0l-.5-.5h-1v-.5l-.5-.5-.5-1v-2.488l.5-1,1-1,1-.5h1l1.99-.5.5-.5h1.99l1.493.5v-.5h0v-.5l.5-.5v-.5h1l-.5.5h.5l-.5.5h0v-.5h-.5v.5l-.5,1H102.9l1-.5h0l.5.5h0l.5.5v.5h1.493l1-.5.5.5h1.493v.5h0v-.5l.5.5v1h0l.5.5,1,1,.5,1v1h1.99l1,.5h0l1.493,1h.5v.5h.5l1-1h2.488l.5-.5h.5v1.493h.5l-.5.5h-.5l.5-.5h0l-.5-.5v-.5h-.5v.5l-.5-.5-1.493.5h-.5l-.5.5h-.5v.5l.5.5h0v.5h0l-.5.5h.5v-.5l-.5.5v.5h-.5l-.5.5-.5,1h-.5l-.5.5-.5-.5-1,.5-.5.5h-1v.5h-3.483l-1-1h0l-.5-1Z" transform="translate(-67.075 -266.809)" fill="#fff" fill-rule="evenodd"/>
    <path id="path929" d="M113.465,437.685v-.5h0v.5Z" transform="translate(-78.631 -294.224)" fill="#fff" fill-rule="evenodd"/>
    <path id="path949" d="M185.962,405.187l-.5.5h0v.5l-.5-.5h0Z" transform="translate(-138.331 -272.924)" fill="#fff" fill-rule="evenodd"/>
  </g>
  <path id="Icon_awesome-map-pin" data-name="Icon awesome-map-pin" d="M7.875,22.285V33.3l1.548,2.322a.844.844,0,0,0,1.4,0L12.375,33.3V22.285a11.872,11.872,0,0,1-4.5,0ZM10.125,0A10.125,10.125,0,1,0,20.25,10.125,10.125,10.125,0,0,0,10.125,0Zm0,5.344a4.786,4.786,0,0,0-4.781,4.781.844.844,0,0,1-1.687,0,6.476,6.476,0,0,1,6.469-6.469.844.844,0,0,1,0,1.688Z" transform="translate(70.294 107.882)" fill="#274c67"/>
</svg>

